<?xml version="1.0" encoding="UTF-8" standalone="no"?>
<!DOCTYPE svg PUBLIC "-//W3C//DTD SVG 1.1//EN" "http://www.w3.org/Graphics/SVG/1.1/DTD/svg11.dtd">
<!-- Created with Vectornator (http://vectornator.io/) -->
<svg height="100%" stroke-miterlimit="10" style="fill-rule:nonzero;clip-rule:evenodd;stroke-linecap:round;stroke-linejoin:round;" version="1.1" viewBox="0 0 926 428" width="100%" xml:space="preserve" xmlns="http://www.w3.org/2000/svg" xmlns:vectornator="http://vectornator.io" xmlns:xlink="http://www.w3.org/1999/xlink">
<defs/>
<clipPath id="ArtboardFrame">
<rect height="428" width="926" x="0" y="0"/>
</clipPath>
<g clip-path="url(#ArtboardFrame)" id="Layer-1" vectornator:layerName="Layer 1">
<path d="M160 140L280 220" fill="none" opacity="1" stroke="#000000" stroke-linecap="butt" stroke-linejoin="round" stroke-width="3.5"/>
<path d="M160 300L280 220" fill="none" opacity="1" stroke="#000000" stroke-linecap="butt" stroke-linejoin="round" stroke-width="3.5"/>
<path d="M40 340L160 300" fill="none" opacity="1" stroke="#000000" stroke-linecap="butt" stroke-linejoin="round" stroke-width="3.5"/>
<path d="M40 280L160 300" fill="none" opacity="1" stroke="#000000" stroke-linecap="butt" stroke-linejoin="round" stroke-width="3.5"/>
<path d="M40 60L160 140" fill="none" opacity="1" stroke="#000000" stroke-linecap="butt" stroke-linejoin="round" stroke-width="3.5"/>
<path d="M40 120L160 140" fill="none" opacity="1" stroke="#000000" stroke-linecap="butt" stroke-linejoin="round" stroke-width="3.5"/>
<path d="M40 180L160 140" fill="none" opacity="1" stroke="#000000" stroke-linecap="butt" stroke-linejoin="round" stroke-width="3.5"/>
<path d="M300 220L380 220" fill="none" opacity="1" stroke="#ff0000" stroke-linecap="butt" stroke-linejoin="round" stroke-width="3.5"/>
<path d="M265 200L295 200C297.761 200 300 202.239 300 205L300 235C300 237.761 297.761 240 295 240L265 240C262.239 240 260 237.761 260 235L260 205C260 202.239 262.239 200 265 200Z" fill="#00ffd9" fill-rule="nonzero" opacity="1" stroke="#000000" stroke-linecap="butt" stroke-linejoin="round" stroke-width="3.5"/>
<path d="M145 280L175 280C177.761 280 180 282.239 180 285L180 315C180 317.761 177.761 320 175 320L145 320C142.239 320 140 317.761 140 315L140 285C140 282.239 142.239 280 145 280Z" fill="#5eb9ff" fill-rule="nonzero" opacity="1" stroke="#000000" stroke-linecap="butt" stroke-linejoin="round" stroke-width="3.5"/>
<path d="M25 320L55 320C57.7614 320 60 322.239 60 325L60 355C60 357.761 57.7614 360 55 360L25 360C22.2386 360 20 357.761 20 355L20 325C20 322.239 22.2386 320 25 320Z" fill="#8d96ff" fill-rule="nonzero" opacity="1" stroke="#000000" stroke-linecap="butt" stroke-linejoin="round" stroke-width="3.5"/>
<path d="M25 260L55 260C57.7614 260 60 262.239 60 265L60 295C60 297.761 57.7614 300 55 300L25 300C22.2386 300 20 297.761 20 295L20 265C20 262.239 22.2386 260 25 260Z" fill="#c200ff" fill-rule="nonzero" opacity="1" stroke="#000000" stroke-linecap="butt" stroke-linejoin="round" stroke-width="3.5"/>
<path d="M145 120L175 120C177.761 120 180 122.239 180 125L180 155C180 157.761 177.761 160 175 160L145 160C142.239 160 140 157.761 140 155L140 125C140 122.239 142.239 120 145 120Z" fill="#0033ff" fill-rule="nonzero" opacity="1" stroke="#000000" stroke-linecap="butt" stroke-linejoin="round" stroke-width="3.5"/>
<path d="M25 160L55 160C57.7614 160 60 162.239 60 165L60 195C60 197.761 57.7614 200 55 200L25 200C22.2386 200 20 197.761 20 195L20 165C20 162.239 22.2386 160 25 160Z" fill="#8d96ff" fill-rule="nonzero" opacity="1" stroke="#000000" stroke-linecap="butt" stroke-linejoin="round" stroke-width="3.5"/>
<path d="M25 100L55 100C57.7614 100 60 102.239 60 105L60 135C60 137.761 57.7614 140 55 140L25 140C22.2386 140 20 137.761 20 135L20 105C20 102.239 22.2386 100 25 100Z" fill="#8d96ff" fill-rule="nonzero" opacity="1" stroke="#000000" stroke-linecap="butt" stroke-linejoin="round" stroke-width="3.5"/>
<path d="M25 40L55 40C57.7614 40 60 42.2386 60 45L60 75C60 77.7614 57.7614 80 55 80L25 80C22.2386 80 20 77.7614 20 75L20 45C20 42.2386 22.2386 40 25 40Z" fill="#c200ff" fill-rule="nonzero" opacity="1" stroke="#000000" stroke-linecap="butt" stroke-linejoin="round" stroke-width="3.5"/>
<path d="M520 300L640 340" fill="none" opacity="1" stroke="#000000" stroke-linecap="butt" stroke-linejoin="round" stroke-width="3.5"/>
<path d="M520 300L640 280" fill="none" opacity="1" stroke="#000000" stroke-linecap="butt" stroke-linejoin="round" stroke-width="3.5"/>
<path d="M520 140L640 180" fill="none" opacity="1" stroke="#000000" stroke-linecap="butt" stroke-linejoin="round" stroke-width="3.5"/>
<path d="M520 140L640 120" fill="none" opacity="1" stroke="#000000" stroke-linecap="butt" stroke-linejoin="round" stroke-width="3.5"/>
<path d="M520 140L640 60" fill="none" opacity="1" stroke="#000000" stroke-linecap="butt" stroke-linejoin="round" stroke-width="3.5"/>
<path d="M400 220L520 300" fill="none" opacity="1" stroke="#000000" stroke-linecap="butt" stroke-linejoin="round" stroke-width="3.5"/>
<path d="M400 220L520 140" fill="none" opacity="1" stroke="#000000" stroke-linecap="butt" stroke-linejoin="round" stroke-width="3.5"/>
<path d="M385 200L415 200C417.761 200 420 202.239 420 205L420 235C420 237.761 417.761 240 415 240L385 240C382.239 240 380 237.761 380 235L380 205C380 202.239 382.239 200 385 200Z" fill="#a0ef59" fill-rule="nonzero" opacity="1" stroke="#000000" stroke-linecap="butt" stroke-linejoin="round" stroke-width="3.5"/>
<path d="M505 280L535 280C537.761 280 540 282.239 540 285L540 315C540 317.761 537.761 320 535 320L505 320C502.239 320 500 317.761 500 315L500 285C500 282.239 502.239 280 505 280Z" fill="#00c22a" fill-rule="nonzero" opacity="1" stroke="#000000" stroke-linecap="butt" stroke-linejoin="round" stroke-width="3.5"/>
<path d="M505 120L535 120C537.761 120 540 122.239 540 125L540 155C540 157.761 537.761 160 535 160L505 160C502.239 160 500 157.761 500 155L500 125C500 122.239 502.239 120 505 120Z" fill="#0f8a00" fill-rule="nonzero" opacity="1" stroke="#000000" stroke-linecap="butt" stroke-linejoin="round" stroke-width="3.5"/>
<path d="M625 40L655 40C657.761 40 660 42.2386 660 45L660 75C660 77.7614 657.761 80 655 80L625 80C622.239 80 620 77.7614 620 75L620 45C620 42.2386 622.239 40 625 40Z" fill="#ffda36" fill-rule="nonzero" opacity="1" stroke="#000000" stroke-linecap="butt" stroke-linejoin="round" stroke-width="3.5"/>
<path d="M625 100L655 100C657.761 100 660 102.239 660 105L660 135C660 137.761 657.761 140 655 140L625 140C622.239 140 620 137.761 620 135L620 105C620 102.239 622.239 100 625 100Z" fill="#e2ff3b" fill-rule="nonzero" opacity="1" stroke="#000000" stroke-linecap="butt" stroke-linejoin="round" stroke-width="3.5"/>
<path d="M625 160L655 160C657.761 160 660 162.239 660 165L660 195C660 197.761 657.761 200 655 200L625 200C622.239 200 620 197.761 620 195L620 165C620 162.239 622.239 160 625 160Z" fill="#e2ff3b" fill-rule="nonzero" opacity="1" stroke="#000000" stroke-linecap="butt" stroke-linejoin="round" stroke-width="3.5"/>
<path d="M625 260L655 260C657.761 260 660 262.239 660 265L660 295C660 297.761 657.761 300 655 300L625 300C622.239 300 620 297.761 620 295L620 265C620 262.239 622.239 260 625 260Z" fill="#ffda36" fill-rule="nonzero" opacity="1" stroke="#000000" stroke-linecap="butt" stroke-linejoin="round" stroke-width="3.5"/>
<path d="M625 320L655 320C657.761 320 660 322.239 660 325L660 355C660 357.761 657.761 360 655 360L625 360C622.239 360 620 357.761 620 355L620 325C620 322.239 622.239 320 625 320Z" fill="#e2ff3b" fill-rule="nonzero" opacity="1" stroke="#000000" stroke-linecap="butt" stroke-linejoin="round" stroke-width="3.5"/>
<path d="M705.41 60L910.975 60C913.962 60 916.384 62.2386 916.384 65L916.384 395C916.384 397.761 913.962 400 910.975 400L705.41 400C702.422 400 700 397.761 700 395L700 65C700 62.2386 702.422 60 705.41 60Z" fill="#ffffff" fill-opacity="0" fill-rule="nonzero" opacity="1" stroke="#000000" stroke-dasharray="0.1,0.1,10.0,0.1,0.1,10.0" stroke-linecap="butt" stroke-linejoin="round" stroke-width="2"/>
<path d="M340-20L340 62.9289L340 420" fill="none" opacity="1" stroke="#cddcff" stroke-dasharray="5.0,0.1,5.0,5.0,0.1,5.0" stroke-linecap="butt" stroke-linejoin="round" stroke-width="3.5"/>
<path d="M722.5 100L737.5 100C738.881 100 740 102.239 740 105L740 135C740 137.761 738.881 140 737.5 140L722.5 140C721.119 140 720 137.761 720 135L720 105C720 102.239 721.119 100 722.5 100Z" fill="#00ecd6" fill-rule="nonzero" opacity="1" stroke="#000000" stroke-linecap="butt" stroke-linejoin="round" stroke-width="3.5"/>
<path d="M722.5 220L737.5 220C738.881 220 740 222.239 740 225L740 255C740 257.761 738.881 260 737.5 260L722.5 260C721.119 260 720 257.761 720 255L720 225C720 222.239 721.119 220 722.5 220Z" fill="#5eb9ff" fill-rule="nonzero" opacity="1" stroke="#000000" stroke-linecap="butt" stroke-linejoin="round" stroke-width="3.5"/>
<path d="M722.5 280L737.5 280C738.881 280 740 282.239 740 285L740 315C740 317.761 738.881 320 737.5 320L722.5 320C721.119 320 720 317.761 720 315L720 285C720 282.239 721.119 280 722.5 280Z" fill="#8d96ff" fill-rule="nonzero" opacity="1" stroke="#000000" stroke-linecap="butt" stroke-linejoin="round" stroke-width="3.5"/>
<path d="M722.5 340L737.5 340C738.881 340 740 342.239 740 345L740 375C740 377.761 738.881 380 737.5 380L722.5 380C721.119 380 720 377.761 720 375L720 345C720 342.239 721.119 340 722.5 340Z" fill="#c200ff" fill-rule="nonzero" opacity="1" stroke="#000000" stroke-linecap="butt" stroke-linejoin="round" stroke-width="3.5"/>
<path d="M742.5 340L757.5 340C758.881 340 760 342.239 760 345L760 375C760 377.761 758.881 380 757.5 380L742.5 380C741.119 380 740 377.761 740 375L740 345C740 342.239 741.119 340 742.5 340Z" fill="#ffda36" fill-rule="nonzero" opacity="1" stroke="#000000" stroke-linecap="butt" stroke-linejoin="round" stroke-width="3.5"/>
<path d="M742.5 280L757.5 280C758.881 280 760 282.239 760 285L760 315C760 317.761 758.881 320 757.5 320L742.5 320C741.119 320 740 317.761 740 315L740 285C740 282.239 741.119 280 742.5 280Z" fill="#e2ff3b" fill-rule="nonzero" opacity="1" stroke="#000000" stroke-linecap="butt" stroke-linejoin="round" stroke-width="3.5"/>
<path d="M742.5 220L757.5 220C758.881 220 760 222.239 760 225L760 255C760 257.761 758.881 260 757.5 260L742.5 260C741.119 260 740 257.761 740 255L740 225C740 222.239 741.119 220 742.5 220Z" fill="#00c22a" fill-rule="nonzero" opacity="1" stroke="#000000" stroke-linecap="butt" stroke-linejoin="round" stroke-width="3.5"/>
<path d="M742.5 160L757.5 160C758.881 160 760 162.239 760 165L760 195C760 197.761 758.881 200 757.5 200L742.5 200C741.119 200 740 197.761 740 195L740 165C740 162.239 741.119 160 742.5 160Z" fill="#0f8a00" fill-rule="nonzero" opacity="1" stroke="#000000" stroke-linecap="butt" stroke-linejoin="round" stroke-width="3.5"/>
<g fill="#000000" opacity="1" stroke="none">
<path d="M786.647 48.5685L795.841 48.5685L795.841 46.1369L789.597 46.1369L789.597 34.4767L786.647 34.4767L786.647 48.5685Z"/>
<path d="M801.902 48.7945C802.678 48.7945 803.351 48.695 803.923 48.4959C804.495 48.2969 804.975 48.0371 805.362 47.7166C805.749 47.3961 806.055 47.0494 806.279 46.6765C806.503 46.3036 806.655 45.9438 806.736 45.597L806.761 45.4922L804.114 45.4958L804.087 45.5544C804.022 45.7034 803.9 45.8641 803.72 46.0368C803.541 46.2094 803.305 46.3567 803.014 46.4788C802.722 46.6009 802.371 46.6619 801.961 46.6619C801.451 46.6619 801.012 46.5491 800.643 46.3235C800.273 46.098 799.989 45.7727 799.791 45.3476C799.592 44.9225 799.493 44.4107 799.493 43.8122L799.493 42.674C799.493 42.0559 799.593 41.5319 799.794 41.1019C799.995 40.6719 800.272 40.3458 800.624 40.1235C800.975 39.9013 801.379 39.7901 801.834 39.7901C802.292 39.7901 802.693 39.898 803.038 40.1138C803.383 40.3295 803.654 40.6509 803.849 41.078C804.044 41.5051 804.141 42.0371 804.141 42.674L804.141 43.8024L805.482 42.1153L798.089 42.1153L798.089 43.9047L806.849 43.9047L806.849 43.0221C806.849 41.9425 806.644 41.0007 806.233 40.1968C805.823 39.393 805.239 38.7687 804.481 38.3242C803.723 37.8797 802.825 37.6574 801.785 37.6574C800.746 37.6574 799.843 37.8862 799.077 38.3437C798.311 38.8013 797.718 39.4473 797.298 40.2818C796.879 41.1162 796.669 42.1009 796.669 43.2357L796.669 43.2455C796.669 44.3861 796.879 45.3714 797.3 46.2014C797.721 47.0314 798.322 47.6711 799.103 48.1204C799.884 48.5698 800.817 48.7945 801.902 48.7945Z"/>
<path d="M813.293 52.3132C814.371 52.3132 815.304 52.1461 816.091 51.812C816.878 51.4779 817.486 51.0063 817.915 50.3972C818.344 49.7881 818.558 49.0709 818.558 48.2456L818.558 37.8835L815.706 37.8835L815.706 39.6494L815.591 39.6494C815.399 39.2442 815.148 38.8968 814.836 38.6073C814.524 38.3177 814.162 38.0945 813.75 37.9376C813.337 37.7807 812.883 37.7023 812.388 37.7023C811.479 37.7023 810.697 37.9215 810.042 38.3599C809.388 38.7983 808.884 39.4139 808.531 40.2065C808.177 40.9992 808.001 41.9302 808.001 42.9995L808.001 43.0167C808.001 44.0503 808.176 44.954 808.526 45.7278C808.877 46.5017 809.377 47.1032 810.027 47.5323C810.677 47.9614 811.449 48.1759 812.341 48.1759C812.84 48.1759 813.298 48.1082 813.713 47.9729C814.128 47.8377 814.492 47.6386 814.806 47.3758C815.12 47.113 815.374 46.794 815.566 46.4187L815.714 46.4187L815.714 48.3271C815.714 48.9421 815.507 49.4217 815.095 49.7658C814.682 50.1099 814.098 50.2819 813.342 50.2819C812.717 50.2819 812.221 50.1845 811.853 49.9896C811.486 49.7946 811.259 49.5487 811.172 49.2518L811.154 49.2057L808.346 49.2057L808.346 49.2638C808.429 49.8585 808.674 50.3863 809.081 50.847C809.487 51.3078 810.044 51.6673 810.753 51.9257C811.462 52.184 812.308 52.3132 813.293 52.3132ZM813.312 46.0114C812.81 46.0114 812.381 45.8873 812.023 45.639C811.665 45.3908 811.391 45.0425 811.201 44.5943C811.011 44.146 810.916 43.6227 810.916 43.0242L810.916 43.007C810.916 42.4086 811.011 41.8859 811.202 41.4388C811.392 40.9916 811.666 40.6441 812.023 40.3963C812.381 40.1484 812.81 40.0245 813.312 40.0245C813.814 40.0245 814.246 40.1486 814.608 40.3969C814.969 40.6451 815.248 40.9936 815.444 41.4423C815.64 41.891 815.739 42.4142 815.739 43.0119L815.739 43.0291C815.739 43.626 815.641 44.148 815.445 44.595C815.249 45.0421 814.97 45.3899 814.609 45.6385C814.247 45.8871 813.815 46.0114 813.312 46.0114Z"/>
<path d="M825.462 48.7945C826.237 48.7945 826.911 48.695 827.483 48.4959C828.055 48.2969 828.534 48.0371 828.922 47.7166C829.309 47.3961 829.615 47.0494 829.838 46.6765C830.062 46.3036 830.215 45.9438 830.296 45.597L830.32 45.4922L827.673 45.4958L827.646 45.5544C827.581 45.7034 827.459 45.8641 827.28 46.0368C827.1 46.2094 826.865 46.3567 826.573 46.4788C826.282 46.6009 825.931 46.6619 825.52 46.6619C825.011 46.6619 824.571 46.5491 824.202 46.3235C823.833 46.098 823.549 45.7727 823.35 45.3476C823.152 44.9225 823.052 44.4107 823.052 43.8122L823.052 42.674C823.052 42.0559 823.153 41.5319 823.354 41.1019C823.555 40.6719 823.831 40.3458 824.183 40.1235C824.535 39.9013 824.938 39.7901 825.394 39.7901C825.851 39.7901 826.253 39.898 826.598 40.1138C826.943 40.3295 827.213 40.6509 827.408 41.078C827.603 41.5051 827.701 42.0371 827.701 42.674L827.701 43.8024L829.042 42.1153L821.649 42.1153L821.649 43.9047L830.408 43.9047L830.408 43.0221C830.408 41.9425 830.203 41.0007 829.793 40.1968C829.383 39.393 828.799 38.7687 828.041 38.3242C827.283 37.8797 826.384 37.6574 825.345 37.6574C824.305 37.6574 823.402 37.8862 822.636 38.3437C821.87 38.8013 821.278 39.4473 820.858 40.2818C820.438 41.1162 820.229 42.1009 820.229 43.2357L820.229 43.2455C820.229 44.3861 820.439 45.3714 820.86 46.2014C821.281 47.0314 821.882 47.6711 822.663 48.1204C823.444 48.5698 824.377 48.7945 825.462 48.7945Z"/>
<path d="M832.077 48.5685L834.928 48.5685L834.928 42.4C834.928 41.9186 835.014 41.5005 835.184 41.1455C835.355 40.7905 835.598 40.5143 835.913 40.3169C836.228 40.1194 836.604 40.0207 837.039 40.0207C837.705 40.0207 838.198 40.2143 838.517 40.6014C838.837 40.9886 838.997 41.5538 838.997 42.2971L838.997 48.5685L841.848 48.5685L841.848 41.6615C841.848 40.3896 841.535 39.4043 840.908 38.7055C840.281 38.0068 839.374 37.6574 838.188 37.6574C837.414 37.6574 836.765 37.8275 836.241 38.1676C835.717 38.5077 835.329 38.9714 835.076 39.5586L834.928 39.5586L834.928 37.8835L832.077 37.8835L832.077 48.5685Z"/>
<path d="M847.772 48.7498C848.533 48.7498 849.19 48.5848 849.744 48.2549C850.298 47.9249 850.714 47.4652 850.991 46.8757L851.139 46.8757L851.139 48.5685L853.991 48.5685L853.991 33.8876L851.139 33.8876L851.139 39.6264L850.991 39.6264C850.717 39.029 850.297 38.5589 849.731 38.2163C849.165 37.8736 848.512 37.7023 847.771 37.7023C846.871 37.7023 846.097 37.9224 845.449 38.3628C844.801 38.8032 844.303 39.435 843.955 40.2584C843.606 41.0818 843.431 42.0677 843.431 43.2162L843.431 43.2334C843.431 44.3737 843.607 45.3563 843.96 46.1813C844.312 47.0063 844.813 47.6406 845.463 48.0843C846.114 48.5279 846.883 48.7498 847.772 48.7498ZM848.739 46.3865C848.245 46.3865 847.818 46.2601 847.457 46.0074C847.096 45.7547 846.818 45.3922 846.624 44.92C846.429 44.4478 846.332 43.8856 846.332 43.2334L846.332 43.2162C846.332 42.5633 846.429 42.0018 846.624 41.5316C846.819 41.0614 847.098 40.6995 847.459 40.4459C847.821 40.1923 848.247 40.0655 848.739 40.0655C849.231 40.0655 849.659 40.1927 850.021 40.4471C850.383 40.7014 850.663 41.0639 850.863 41.5344C851.063 42.005 851.163 42.5672 851.163 43.2211L851.163 43.2383C851.163 43.8865 851.064 44.4467 850.866 44.9188C850.668 45.391 850.388 45.7536 850.025 46.0068C849.663 46.2599 849.234 46.3865 848.739 46.3865Z"/>
</g>
<g fill="#000000" opacity="1" stroke="none">
<path d="M802.755 114.86L804.513 114.86L804.513 108.756L810.753 108.756L810.753 107.194L804.513 107.194L804.513 102.35L811.31 102.35L811.31 100.768L802.755 100.768L802.755 114.86Z"/>
<path d="M813.37 114.86L815.069 114.86L815.069 104.42L813.37 104.42L813.37 114.86ZM814.227 102.463C814.546 102.463 814.817 102.35 815.04 102.124C815.262 101.898 815.373 101.629 815.373 101.316C815.373 100.997 815.262 100.726 815.04 100.503C814.817 100.281 814.546 100.17 814.227 100.17C813.914 100.17 813.645 100.281 813.419 100.503C813.193 100.726 813.08 100.997 813.08 101.316C813.08 101.629 813.193 101.898 813.419 102.124C813.645 102.35 813.914 102.463 814.227 102.463Z"/>
<path d="M817.613 114.86L819.312 114.86L819.312 108.396C819.312 107.882 819.424 107.435 819.648 107.054C819.872 106.674 820.181 106.379 820.577 106.169C820.973 105.959 821.429 105.853 821.945 105.853C822.138 105.853 822.318 105.862 822.484 105.879C822.65 105.896 822.808 105.92 822.957 105.951L822.957 104.301C822.877 104.288 822.762 104.273 822.612 104.257C822.462 104.24 822.307 104.232 822.147 104.232C821.47 104.232 820.898 104.39 820.431 104.705C819.965 105.02 819.635 105.458 819.441 106.02L819.312 106.02L819.312 104.42L817.613 104.42L817.613 114.86Z"/>
<path d="M824.586 114.86L826.285 114.86L826.285 108.373C826.285 107.883 826.39 107.439 826.599 107.04C826.809 106.642 827.095 106.325 827.458 106.089C827.821 105.854 828.23 105.736 828.684 105.736C829.341 105.736 829.865 105.923 830.258 106.297C830.65 106.67 830.846 107.169 830.846 107.792L830.846 114.86L832.545 114.86L832.545 108.166C832.545 107.714 832.646 107.304 832.846 106.938C833.046 106.572 833.326 106.28 833.686 106.062C834.046 105.845 834.466 105.736 834.945 105.736C835.67 105.736 836.214 105.931 836.577 106.32C836.94 106.708 837.121 107.281 837.121 108.037L837.121 114.86L838.821 114.86L838.821 107.647C838.821 106.925 838.689 106.31 838.425 105.802C838.162 105.294 837.781 104.905 837.284 104.636C836.787 104.367 836.186 104.232 835.48 104.232C835 104.232 834.551 104.309 834.132 104.463C833.714 104.617 833.346 104.833 833.027 105.113C832.709 105.393 832.456 105.723 832.267 106.103L832.138 106.103C831.98 105.726 831.764 105.398 831.491 105.118C831.217 104.839 830.892 104.621 830.515 104.465C830.139 104.31 829.714 104.232 829.242 104.232C828.561 104.232 827.978 104.388 827.492 104.7C827.006 105.012 826.647 105.443 826.414 105.994L826.285 105.994L826.285 104.42L824.586 104.42L824.586 114.86Z"/>
<path d="M842.877 114.86L844.583 114.86L846.913 106.782L847.042 106.782L849.381 114.86L851.095 114.86L854.016 104.42L852.329 104.42L850.268 112.801L850.14 112.801L847.798 104.42L846.179 104.42L843.84 112.801L843.711 112.801L841.65 104.42L839.953 104.42L842.877 114.86Z"/>
<path d="M858.249 115.048C858.72 115.048 859.155 114.979 859.554 114.84C859.954 114.702 860.313 114.501 860.631 114.237C860.949 113.973 861.215 113.655 861.431 113.284L861.559 113.284L861.559 114.86L863.258 114.86L863.258 107.697C863.258 106.98 863.103 106.362 862.791 105.844C862.479 105.326 862.027 104.928 861.435 104.65C860.842 104.372 860.123 104.232 859.278 104.232C858.518 104.232 857.846 104.352 857.262 104.593C856.677 104.833 856.206 105.165 855.847 105.588C855.489 106.012 855.268 106.501 855.186 107.056L855.177 107.126L856.862 107.126L856.874 107.083C857.002 106.662 857.267 106.332 857.67 106.094C858.073 105.855 858.592 105.736 859.228 105.736C859.997 105.736 860.578 105.909 860.971 106.254C861.363 106.598 861.559 107.092 861.559 107.736L861.559 110.95C861.559 111.448 861.431 111.895 861.176 112.291C860.92 112.686 860.57 112.999 860.126 113.229C859.683 113.458 859.176 113.573 858.608 113.573C857.996 113.573 857.492 113.426 857.097 113.132C856.702 112.838 856.504 112.43 856.504 111.907L856.504 111.887C856.504 111.377 856.689 110.979 857.058 110.692C857.428 110.406 857.998 110.241 858.77 110.197L862.409 109.967L862.409 108.619L858.567 108.848C857.357 108.919 856.421 109.217 855.759 109.745C855.097 110.272 854.766 110.996 854.766 111.917L854.766 111.936C854.766 112.568 854.918 113.118 855.221 113.585C855.524 114.052 855.938 114.413 856.463 114.667C856.988 114.921 857.584 115.048 858.249 115.048Z"/>
<path d="M865.691 114.86L867.39 114.86L867.39 108.396C867.39 107.882 867.502 107.435 867.726 107.054C867.949 106.674 868.259 106.379 868.655 106.169C869.051 105.959 869.507 105.853 870.023 105.853C870.216 105.853 870.396 105.862 870.562 105.879C870.728 105.896 870.886 105.92 871.035 105.951L871.035 104.301C870.955 104.288 870.84 104.273 870.69 104.257C870.539 104.24 870.384 104.232 870.225 104.232C869.547 104.232 868.976 104.39 868.509 104.705C868.043 105.02 867.713 105.458 867.518 106.02L867.39 106.02L867.39 104.42L865.691 104.42L865.691 114.86Z"/>
<path d="M876.445 115.048C877.048 115.048 877.596 114.969 878.088 114.811C878.581 114.653 879.011 114.438 879.377 114.166C879.743 113.894 880.042 113.587 880.275 113.245C880.508 112.903 880.669 112.546 880.758 112.174L880.778 112.091L879.085 112.091L879.049 112.179C878.956 112.408 878.796 112.626 878.568 112.834C878.34 113.042 878.052 113.211 877.703 113.341C877.355 113.471 876.948 113.536 876.484 113.536C875.852 113.536 875.304 113.396 874.84 113.116C874.376 112.836 874.018 112.433 873.766 111.908C873.515 111.383 873.389 110.75 873.389 110.009L873.389 109.339C873.389 108.559 873.518 107.902 873.775 107.367C874.032 106.832 874.382 106.428 874.824 106.154C875.266 105.88 875.767 105.744 876.328 105.744C876.888 105.744 877.384 105.874 877.815 106.134C878.247 106.395 878.585 106.79 878.83 107.319C879.076 107.848 879.198 108.522 879.198 109.339L879.198 110.009L880.042 108.771L872.527 108.771L872.527 110.121L880.905 110.121L880.905 109.466C880.905 108.426 880.722 107.513 880.356 106.727C879.991 105.942 879.467 105.329 878.785 104.891C878.103 104.452 877.287 104.232 876.337 104.232C875.393 104.232 874.569 104.462 873.866 104.92C873.162 105.378 872.618 106.015 872.233 106.83C871.848 107.645 871.655 108.591 871.655 109.669L871.655 109.679C871.655 110.77 871.847 111.718 872.232 112.522C872.616 113.327 873.166 113.949 873.88 114.388C874.595 114.828 875.45 115.048 876.445 115.048Z"/>
<path d="M777.928 138.727L779.627 138.727L779.627 128.287L777.928 128.287L777.928 138.727ZM778.785 126.33C779.104 126.33 779.375 126.217 779.598 125.991C779.82 125.766 779.931 125.496 779.931 125.183C779.931 124.864 779.82 124.593 779.598 124.371C779.375 124.148 779.104 124.037 778.785 124.037C778.472 124.037 778.203 124.148 777.977 124.371C777.751 124.593 777.638 124.864 777.638 125.183C777.638 125.496 777.751 125.766 777.977 125.991C778.203 126.217 778.472 126.33 778.785 126.33Z"/>
<path d="M782.171 138.727L783.87 138.727L783.87 132.556C783.87 131.947 783.982 131.423 784.205 130.983C784.428 130.543 784.743 130.204 785.15 129.964C785.557 129.723 786.038 129.603 786.591 129.603C787.417 129.603 788.029 129.831 788.426 130.285C788.824 130.739 789.022 131.427 789.022 132.348L789.022 138.727L790.721 138.727L790.721 131.964C790.721 130.735 790.406 129.784 789.776 129.11C789.146 128.436 788.247 128.1 787.079 128.1C786.306 128.1 785.666 128.254 785.16 128.563C784.654 128.873 784.267 129.297 783.999 129.837L783.87 129.837L783.87 128.287L782.171 128.287L782.171 138.727Z"/>
<path d="M796.76 138.833C796.93 138.833 797.096 138.823 797.259 138.805C797.423 138.786 797.579 138.765 797.728 138.742L797.728 137.313C797.592 137.324 797.472 137.334 797.367 137.341C797.263 137.348 797.141 137.352 797.002 137.352C796.477 137.352 796.097 137.226 795.863 136.974C795.628 136.723 795.511 136.297 795.511 135.697L795.511 129.694L797.728 129.694L797.728 128.287L795.511 128.287L795.511 125.558L793.753 125.558L793.753 128.287L792.135 128.287L792.135 129.694L793.753 129.694L793.753 136.027C793.753 137.022 793.993 137.738 794.473 138.176C794.952 138.614 795.715 138.833 796.76 138.833Z"/>
<path d="M803.735 138.915C804.338 138.915 804.886 138.836 805.379 138.678C805.872 138.52 806.301 138.305 806.667 138.033C807.033 137.762 807.333 137.455 807.565 137.112C807.798 136.77 807.959 136.413 808.049 136.041L808.068 135.959L806.376 135.959L806.339 136.046C806.247 136.275 806.086 136.493 805.858 136.701C805.631 136.909 805.342 137.078 804.994 137.208C804.645 137.338 804.239 137.403 803.774 137.403C803.143 137.403 802.595 137.263 802.13 136.983C801.666 136.703 801.308 136.301 801.057 135.775C800.805 135.25 800.679 134.617 800.679 133.876L800.679 133.207C800.679 132.427 800.808 131.769 801.065 131.234C801.323 130.699 801.673 130.295 802.115 130.021C802.557 129.748 803.058 129.611 803.618 129.611C804.178 129.611 804.674 129.741 805.106 130.002C805.537 130.262 805.876 130.657 806.121 131.186C806.366 131.716 806.489 132.389 806.489 133.207L806.489 133.876L807.333 132.638L799.818 132.638L799.818 133.988L808.195 133.988L808.195 133.334C808.195 132.293 808.013 131.38 807.647 130.594C807.281 129.809 806.758 129.197 806.075 128.758C805.393 128.319 804.577 128.1 803.628 128.1C802.684 128.1 801.86 128.329 801.156 128.787C800.453 129.245 799.908 129.882 799.523 130.697C799.138 131.512 798.946 132.458 798.946 133.536L798.946 133.546C798.946 134.637 799.138 135.585 799.522 136.389C799.906 137.194 800.456 137.816 801.171 138.255C801.886 138.695 802.74 138.915 803.735 138.915Z"/>
<path d="M810.163 138.727L811.863 138.727L811.863 132.263C811.863 131.749 811.975 131.302 812.198 130.922C812.422 130.541 812.732 130.246 813.128 130.036C813.524 129.826 813.98 129.721 814.495 129.721C814.689 129.721 814.869 129.729 815.035 129.746C815.201 129.763 815.358 129.787 815.508 129.818L815.508 128.168C815.428 128.155 815.313 128.14 815.162 128.124C815.012 128.108 814.857 128.1 814.698 128.1C814.02 128.1 813.448 128.257 812.982 128.572C812.516 128.888 812.185 129.326 811.991 129.887L811.863 129.887L811.863 128.287L810.163 128.287L810.163 138.727Z"/>
<path d="M818.101 138.727L819.8 138.727L819.8 129.694L822.117 129.694L822.117 128.287L819.796 128.287L819.796 127.137C819.796 126.576 819.924 126.154 820.181 125.873C820.438 125.592 820.853 125.451 821.426 125.451C821.571 125.451 821.711 125.454 821.845 125.461C821.98 125.467 822.099 125.479 822.203 125.497L822.203 124.135C822.039 124.106 821.865 124.083 821.678 124.068C821.492 124.052 821.297 124.045 821.093 124.045C820.111 124.045 819.367 124.296 818.861 124.797C818.354 125.299 818.101 126.066 818.101 127.097L818.101 128.287L816.432 128.287L816.432 129.694L818.101 129.694L818.101 138.727Z"/>
<path d="M826.494 138.915C826.965 138.915 827.4 138.846 827.8 138.708C828.199 138.57 828.558 138.368 828.876 138.104C829.194 137.84 829.46 137.522 829.676 137.151L829.804 137.151L829.804 138.727L831.503 138.727L831.503 131.564C831.503 130.847 831.348 130.229 831.036 129.712C830.725 129.194 830.272 128.795 829.68 128.517C829.087 128.239 828.368 128.1 827.523 128.1C826.763 128.1 826.091 128.22 825.507 128.46C824.922 128.7 824.451 129.032 824.092 129.456C823.734 129.879 823.513 130.368 823.432 130.923L823.422 130.993L825.107 130.993L825.119 130.95C825.247 130.529 825.512 130.2 825.915 129.961C826.318 129.723 826.837 129.603 827.473 129.603C828.243 129.603 828.823 129.776 829.216 130.121C829.608 130.466 829.804 130.96 829.804 131.603L829.804 134.817C829.804 135.316 829.676 135.763 829.421 136.158C829.165 136.554 828.815 136.866 828.372 137.096C827.928 137.325 827.421 137.44 826.853 137.44C826.241 137.44 825.737 137.293 825.342 136.999C824.947 136.705 824.749 136.297 824.749 135.774L824.749 135.754C824.749 135.244 824.934 134.846 825.303 134.559C825.673 134.273 826.243 134.108 827.015 134.064L830.654 133.834L830.654 132.486L826.812 132.716C825.602 132.786 824.666 133.084 824.004 133.612C823.342 134.139 823.011 134.864 823.011 135.784L823.011 135.804C823.011 136.435 823.163 136.985 823.466 137.452C823.769 137.919 824.183 138.28 824.708 138.534C825.233 138.788 825.829 138.915 826.494 138.915Z"/>
<path d="M838.219 138.915C839.047 138.915 839.761 138.772 840.361 138.487C840.961 138.201 841.445 137.81 841.813 137.312C842.181 136.815 842.431 136.248 842.562 135.614L842.579 135.516L840.902 135.523L840.882 135.586C840.699 136.168 840.385 136.617 839.94 136.935C839.495 137.252 838.919 137.411 838.212 137.411C837.596 137.411 837.059 137.251 836.601 136.932C836.142 136.612 835.787 136.159 835.533 135.572C835.28 134.985 835.154 134.29 835.154 133.487L835.154 133.47C835.154 132.682 835.279 131.999 835.528 131.421C835.778 130.842 836.132 130.395 836.59 130.078C837.047 129.762 837.587 129.603 838.207 129.603C838.961 129.603 839.564 129.788 840.016 130.157C840.468 130.526 840.759 130.97 840.888 131.488L840.9 131.528L842.582 131.528L842.572 131.465C842.476 130.851 842.245 130.29 841.879 129.781C841.513 129.273 841.023 128.866 840.407 128.559C839.792 128.253 839.059 128.1 838.207 128.1C837.235 128.1 836.39 128.321 835.672 128.763C834.954 129.205 834.398 129.827 834.005 130.63C833.612 131.432 833.415 132.378 833.415 133.465L833.415 133.483C833.415 134.587 833.612 135.545 834.006 136.359C834.401 137.172 834.957 137.801 835.676 138.247C836.395 138.692 837.242 138.915 838.219 138.915Z"/>
<path d="M848.67 138.915C849.273 138.915 849.821 138.836 850.314 138.678C850.807 138.52 851.236 138.305 851.602 138.033C851.968 137.762 852.268 137.455 852.5 137.112C852.733 136.77 852.894 136.413 852.984 136.041L853.003 135.959L851.311 135.959L851.274 136.046C851.181 136.275 851.021 136.493 850.793 136.701C850.565 136.909 850.277 137.078 849.929 137.208C849.58 137.338 849.174 137.403 848.709 137.403C848.077 137.403 847.529 137.263 847.065 136.983C846.601 136.703 846.243 136.301 845.992 135.775C845.74 135.25 845.614 134.617 845.614 133.876L845.614 133.207C845.614 132.427 845.743 131.769 846 131.234C846.258 130.699 846.607 130.295 847.05 130.021C847.492 129.748 847.993 129.611 848.553 129.611C849.113 129.611 849.609 129.741 850.041 130.002C850.472 130.262 850.811 130.657 851.056 131.186C851.301 131.716 851.423 132.389 851.423 133.207L851.423 133.876L852.268 132.638L844.753 132.638L844.753 133.988L853.13 133.988L853.13 133.334C853.13 132.293 852.947 131.38 852.582 130.594C852.216 129.809 851.692 129.197 851.01 128.758C850.328 128.319 849.512 128.1 848.563 128.1C847.618 128.1 846.795 128.329 846.091 128.787C845.388 129.245 844.843 129.882 844.458 130.697C844.073 131.512 843.881 132.458 843.881 133.536L843.881 133.546C843.881 134.637 844.073 135.585 844.457 136.389C844.841 137.194 845.391 137.816 846.106 138.255C846.82 138.695 847.675 138.915 848.67 138.915Z"/>
<path d="M865.105 138.915C865.99 138.915 866.762 138.692 867.42 138.247C868.078 137.801 868.588 137.173 868.951 136.362C869.314 135.551 869.496 134.602 869.496 133.515L869.496 133.497C869.496 132.405 869.314 131.455 868.95 130.647C868.586 129.839 868.076 129.213 867.42 128.768C866.764 128.322 865.994 128.1 865.112 128.1C864.39 128.1 863.738 128.268 863.154 128.604C862.57 128.94 862.131 129.391 861.837 129.957L861.709 129.957L861.709 124.165L860.01 124.165L860.01 138.727L861.709 138.727L861.709 137.038L861.837 137.038C862.161 137.626 862.604 138.085 863.167 138.417C863.73 138.749 864.376 138.915 865.105 138.915ZM864.728 137.411C864.105 137.411 863.565 137.252 863.108 136.935C862.65 136.617 862.297 136.167 862.049 135.583C861.801 134.999 861.677 134.31 861.677 133.515L861.677 133.497C861.677 132.697 861.801 132.007 862.05 131.427C862.299 130.846 862.652 130.397 863.109 130.08C863.566 129.762 864.105 129.603 864.728 129.603C865.362 129.603 865.904 129.76 866.355 130.074C866.806 130.387 867.153 130.834 867.395 131.413C867.636 131.993 867.757 132.688 867.757 133.497L867.757 133.515C867.757 134.319 867.636 135.013 867.395 135.597C867.153 136.181 866.806 136.629 866.355 136.942C865.904 137.255 865.362 137.411 864.728 137.411Z"/>
<path d="M871.559 138.727L873.258 138.727L873.258 124.165L871.559 124.165L871.559 138.727Z"/>
<path d="M880.141 138.915C881.128 138.915 881.981 138.696 882.699 138.259C883.417 137.822 883.973 137.199 884.367 136.392C884.761 135.584 884.957 134.625 884.957 133.515L884.957 133.495C884.957 132.38 884.761 131.418 884.367 130.611C883.973 129.805 883.416 129.184 882.698 128.75C881.979 128.316 881.126 128.1 880.139 128.1C879.158 128.1 878.307 128.316 877.586 128.75C876.864 129.184 876.307 129.805 875.913 130.611C875.519 131.418 875.322 132.38 875.322 133.495L875.322 133.515C875.322 134.624 875.519 135.582 875.913 136.391C876.307 137.199 876.864 137.822 877.586 138.259C878.307 138.696 879.159 138.915 880.141 138.915ZM880.143 137.411C879.495 137.411 878.941 137.257 878.483 136.948C878.024 136.639 877.673 136.195 877.428 135.614C877.183 135.034 877.06 134.334 877.06 133.515L877.06 133.495C877.06 132.671 877.183 131.969 877.428 131.39C877.673 130.811 878.024 130.369 878.483 130.063C878.941 129.756 879.493 129.603 880.139 129.603C880.787 129.603 881.341 129.756 881.799 130.061C882.258 130.367 882.609 130.809 882.853 131.389C883.097 131.969 883.219 132.671 883.219 133.495L883.219 133.515C883.219 134.334 883.097 135.034 882.853 135.614C882.609 136.195 882.258 136.639 881.802 136.948C881.345 137.257 880.792 137.411 880.143 137.411Z"/>
<path d="M891.209 138.915C892.037 138.915 892.751 138.772 893.351 138.487C893.95 138.201 894.435 137.81 894.803 137.312C895.171 136.815 895.421 136.248 895.552 135.614L895.569 135.516L893.892 135.523L893.872 135.586C893.689 136.168 893.375 136.617 892.93 136.935C892.484 137.252 891.909 137.411 891.202 137.411C890.586 137.411 890.049 137.251 889.591 136.932C889.132 136.612 888.776 136.159 888.523 135.572C888.27 134.985 888.144 134.29 888.144 133.487L888.144 133.47C888.144 132.682 888.269 131.999 888.518 131.421C888.768 130.842 889.122 130.395 889.58 130.078C890.037 129.762 890.577 129.603 891.197 129.603C891.951 129.603 892.554 129.788 893.006 130.157C893.458 130.526 893.749 130.97 893.878 131.488L893.89 131.528L895.572 131.528L895.562 131.465C895.466 130.851 895.235 130.29 894.869 129.781C894.503 129.273 894.013 128.866 893.397 128.559C892.782 128.253 892.049 128.1 891.197 128.1C890.225 128.1 889.38 128.321 888.662 128.763C887.944 129.205 887.388 129.827 886.995 130.63C886.602 131.432 886.405 132.378 886.405 133.465L886.405 133.483C886.405 134.587 886.602 135.545 886.996 136.359C887.391 137.172 887.947 137.801 888.666 138.247C889.385 138.692 890.232 138.915 891.209 138.915Z"/>
<path d="M897.498 138.727L899.197 138.727L899.197 124.165L897.498 124.165L897.498 138.727ZM904.078 138.727L906.178 138.727L901.247 132.547L900.024 133.642L904.078 138.727ZM898.943 135.014L900.612 133.41L900.958 133.105L905.914 128.287L903.853 128.287L899.326 132.859L898.883 132.859L898.943 135.014Z"/>
</g>
<path d="M722.5 160L737.5 160C738.881 160 740 162.239 740 165L740 195C740 197.761 738.881 200 737.5 200L722.5 200C721.119 200 720 197.761 720 195L720 165C720 162.239 721.119 160 722.5 160Z" fill="#0033ff" fill-rule="nonzero" opacity="1" stroke="#000000" stroke-linecap="butt" stroke-linejoin="round" stroke-width="3.5"/>
<path d="M742.5 100L757.5 100C758.881 100 760 102.239 760 105L760 135C760 137.761 758.881 140 757.5 140L742.5 140C741.119 140 740 137.761 740 135L740 105C740 102.239 741.119 100 742.5 100Z" fill="#a0ef59" fill-rule="nonzero" opacity="1" stroke="#000000" stroke-linecap="butt" stroke-linejoin="round" stroke-width="3.5"/>
<g fill="#000000" opacity="1" stroke="none">
<path d="M812.191 188.804L813.89 188.804L813.89 174.242L812.191 174.242L812.191 188.804Z"/>
<path d="M816.474 192.296L818.173 192.296L818.173 187.134L818.301 187.134C818.501 187.515 818.765 187.843 819.092 188.119C819.42 188.395 819.795 188.609 820.219 188.762C820.643 188.915 821.096 188.992 821.576 188.992C822.458 188.992 823.228 188.769 823.884 188.324C824.54 187.878 825.05 187.252 825.414 186.444C825.778 185.636 825.96 184.686 825.96 183.594L825.96 183.576C825.96 182.489 825.778 181.541 825.415 180.732C825.052 179.924 824.542 179.296 823.884 178.848C823.226 178.4 822.455 178.176 821.569 178.176C821.082 178.176 820.631 178.252 820.216 178.403C819.801 178.554 819.432 178.769 819.109 179.047C818.785 179.326 818.516 179.661 818.301 180.053L818.173 180.053L818.173 178.364L816.474 178.364L816.474 192.296ZM821.192 187.488C820.569 187.488 820.03 187.329 819.573 187.011C819.116 186.694 818.763 186.244 818.514 185.661C818.265 185.078 818.141 184.389 818.141 183.594L818.141 183.576C818.141 182.775 818.265 182.084 818.513 181.503C818.761 180.923 819.114 180.474 819.572 180.156C820.029 179.839 820.569 179.68 821.192 179.68C821.826 179.68 822.368 179.837 822.819 180.149C823.271 180.462 823.617 180.908 823.859 181.489C824.101 182.07 824.222 182.765 824.222 183.576L824.222 183.594C824.222 184.397 824.101 185.09 823.859 185.673C823.617 186.256 823.271 186.704 822.819 187.017C822.368 187.331 821.826 187.488 821.192 187.488Z"/>
<path d="M834.025 189.113C835.242 189.113 836.297 188.872 837.191 188.39C838.085 187.908 838.778 187.23 839.27 186.355C839.763 185.48 840.009 184.45 840.009 183.265L840.009 181.636L834.292 181.636L834.292 183.179L838.252 183.179L838.252 183.5C838.252 184.293 838.075 184.988 837.723 185.587C837.371 186.186 836.877 186.653 836.242 186.989C835.608 187.324 834.871 187.492 834.033 187.492C833.086 187.492 832.268 187.259 831.579 186.795C830.889 186.33 830.357 185.667 829.982 184.805C829.607 183.943 829.419 182.923 829.419 181.744L829.419 181.727C829.419 180.563 829.608 179.555 829.985 178.701C830.361 177.848 830.894 177.189 831.584 176.723C832.273 176.257 833.087 176.024 834.025 176.024C835.06 176.024 835.923 176.266 836.615 176.75C837.307 177.234 837.801 177.93 838.096 178.837L838.128 178.937L839.922 178.937L839.895 178.818C839.705 177.94 839.347 177.17 838.822 176.508C838.297 175.847 837.629 175.33 836.818 174.959C836.007 174.588 835.076 174.403 834.025 174.403C832.737 174.403 831.611 174.705 830.65 175.309C829.688 175.913 828.943 176.764 828.415 177.86C827.887 178.957 827.623 180.246 827.623 181.727L827.623 181.744C827.623 183.242 827.885 184.543 828.411 185.648C828.937 186.753 829.679 187.607 830.638 188.209C831.598 188.812 832.727 189.113 834.025 189.113Z"/>
<path d="M843.342 188.804L847.919 188.804C848.922 188.804 849.778 188.646 850.487 188.33C851.197 188.014 851.742 187.562 852.123 186.973C852.504 186.384 852.694 185.678 852.694 184.856L852.694 184.837C852.694 184.217 852.565 183.663 852.308 183.177C852.05 182.69 851.684 182.293 851.211 181.986C850.737 181.678 850.174 181.485 849.522 181.407L849.522 181.279C849.986 181.197 850.402 181.009 850.771 180.713C851.14 180.418 851.434 180.054 851.653 179.621C851.872 179.188 851.982 178.728 851.982 178.24L851.982 178.22C851.982 177.507 851.814 176.888 851.477 176.363C851.141 175.838 850.664 175.432 850.047 175.144C849.429 174.856 848.694 174.712 847.842 174.712L843.342 174.712L843.342 176.265L847.464 176.265C848.331 176.265 849.005 176.459 849.485 176.846C849.964 177.234 850.204 177.784 850.204 178.495L850.204 178.515C850.204 179.262 849.934 179.827 849.394 180.211C848.854 180.594 848.053 180.786 846.991 180.786L843.342 180.786L843.342 182.3L847.489 182.3C848.238 182.3 848.865 182.391 849.369 182.573C849.874 182.756 850.253 183.029 850.507 183.394C850.761 183.758 850.888 184.211 850.888 184.753L850.888 184.773C850.888 185.58 850.614 186.195 850.066 186.617C849.519 187.04 848.715 187.251 847.655 187.251L843.342 187.251L843.342 188.804ZM842.463 188.804L844.22 188.804L844.22 174.712L842.463 174.712L842.463 188.804Z"/>
<path d="M858.548 188.804L860.305 188.804L860.305 176.294L864.823 176.294L864.823 174.712L854.03 174.712L854.03 176.294L858.548 176.294L858.548 188.804Z"/>
</g>
<g fill="#000000" opacity="1" stroke="none">
<path d="M805.006 247.021C806.223 247.021 807.278 246.78 808.172 246.298C809.065 245.817 809.758 245.138 810.251 244.263C810.744 243.388 810.99 242.358 810.99 241.173L810.99 239.544L805.273 239.544L805.273 241.087L809.232 241.087L809.232 241.408C809.232 242.201 809.056 242.897 808.704 243.496C808.351 244.095 807.858 244.562 807.223 244.897C806.588 245.232 805.852 245.4 805.013 245.4C804.066 245.4 803.248 245.168 802.559 244.703C801.87 244.238 801.338 243.575 800.963 242.713C800.588 241.851 800.4 240.831 800.4 239.653L800.4 239.635C800.4 238.472 800.589 237.463 800.965 236.61C801.342 235.757 801.875 235.097 802.564 234.631C803.253 234.165 804.067 233.932 805.006 233.932C806.04 233.932 806.904 234.175 807.596 234.659C808.288 235.143 808.781 235.838 809.077 236.745L809.109 236.845L810.902 236.845L810.876 236.727C810.686 235.848 810.328 235.079 809.803 234.417C809.278 233.755 808.61 233.239 807.799 232.868C806.988 232.497 806.057 232.311 805.006 232.311C803.717 232.311 802.592 232.613 801.63 233.218C800.669 233.822 799.924 234.672 799.395 235.769C798.867 236.865 798.603 238.154 798.603 239.635L798.603 239.653C798.603 241.15 798.866 242.451 799.392 243.557C799.917 244.662 800.66 245.516 801.619 246.118C802.578 246.72 803.707 247.021 805.006 247.021Z"/>
<path d="M814.322 246.712L818.9 246.712C819.902 246.712 820.758 246.554 821.468 246.239C822.178 245.923 822.723 245.47 823.104 244.881C823.485 244.292 823.675 243.586 823.675 242.765L823.675 242.745C823.675 242.125 823.546 241.572 823.288 241.085C823.03 240.598 822.665 240.201 822.191 239.894C821.718 239.586 821.155 239.394 820.503 239.315L820.503 239.187C820.966 239.105 821.383 238.917 821.752 238.622C822.121 238.326 822.415 237.962 822.634 237.53C822.853 237.097 822.962 236.636 822.962 236.148L822.962 236.129C822.962 235.415 822.794 234.796 822.458 234.272C822.122 233.747 821.645 233.34 821.027 233.052C820.409 232.764 819.674 232.62 818.822 232.62L814.322 232.62L814.322 234.173L818.444 234.173C819.312 234.173 819.986 234.367 820.465 234.755C820.945 235.142 821.185 235.692 821.185 236.404L821.185 236.423C821.185 237.17 820.915 237.735 820.375 238.119C819.834 238.503 819.034 238.695 817.972 238.695L814.322 238.695L814.322 240.208L818.47 240.208C819.219 240.208 819.845 240.299 820.35 240.482C820.854 240.664 821.234 240.937 821.488 241.302C821.742 241.667 821.868 242.12 821.868 242.662L821.868 242.681C821.868 243.489 821.595 244.103 821.047 244.526C820.499 244.948 819.696 245.159 818.636 245.159L814.322 245.159L814.322 246.712ZM813.443 246.712L815.201 246.712L815.201 232.62L813.443 232.62L813.443 246.712Z"/>
<path d="M829.528 246.712L831.286 246.712L831.286 234.202L835.804 234.202L835.804 232.62L825.01 232.62L825.01 234.202L829.528 234.202L829.528 246.712Z"/>
<path d="M836.077 241.82L842.566 241.82L842.566 240.238L836.077 240.238L836.077 241.82Z"/>
<path d="M849.8 247.021C850.854 247.021 851.772 246.849 852.552 246.504C853.333 246.16 853.937 245.672 854.364 245.04C854.791 244.408 855.005 243.658 855.005 242.79L855.005 242.78C855.005 241.751 854.688 240.926 854.053 240.307C853.419 239.688 852.369 239.216 850.903 238.892L849.341 238.543C848.393 238.336 847.709 238.042 847.287 237.661C846.866 237.28 846.655 236.808 846.655 236.245L846.655 236.235C846.655 235.75 846.791 235.337 847.063 234.995C847.336 234.654 847.706 234.392 848.175 234.208C848.644 234.024 849.175 233.932 849.771 233.932C850.379 233.927 850.911 234.019 851.366 234.206C851.821 234.393 852.186 234.65 852.461 234.976C852.736 235.302 852.907 235.681 852.974 236.113L852.993 236.242L854.751 236.242L854.741 236.103C854.694 235.385 854.457 234.74 854.029 234.169C853.601 233.598 853.025 233.146 852.303 232.812C851.58 232.478 850.752 232.311 849.819 232.311C848.851 232.311 847.994 232.48 847.249 232.818C846.503 233.156 845.92 233.623 845.499 234.22C845.079 234.816 844.865 235.505 844.858 236.284L844.858 236.294C844.858 237.318 845.181 238.154 845.827 238.804C846.473 239.454 847.498 239.934 848.901 240.245L850.464 240.587C851.434 240.802 852.134 241.106 852.564 241.499C852.993 241.893 853.208 242.386 853.208 242.98L853.208 242.99C853.208 243.466 853.067 243.886 852.784 244.249C852.502 244.612 852.112 244.895 851.614 245.097C851.117 245.299 850.545 245.4 849.897 245.4C849.22 245.4 848.618 245.306 848.091 245.118C847.563 244.93 847.142 244.665 846.827 244.323C846.512 243.981 846.329 243.576 846.277 243.107L846.265 242.993L844.507 242.993L844.517 243.107C844.585 243.878 844.843 244.558 845.291 245.146C845.738 245.735 846.345 246.194 847.112 246.525C847.878 246.856 848.774 247.021 849.8 247.021Z"/>
<path d="M862.995 247.021C863.993 247.021 864.891 246.844 865.689 246.489C866.488 246.134 867.149 245.636 867.673 244.993C868.197 244.351 868.539 243.595 868.7 242.727L868.704 242.689L866.927 242.689L866.905 242.725C866.748 243.283 866.487 243.763 866.12 244.163C865.754 244.563 865.306 244.869 864.776 245.082C864.246 245.294 863.652 245.4 862.995 245.4C862.084 245.4 861.294 245.166 860.624 244.697C859.955 244.228 859.439 243.565 859.075 242.708C858.712 241.851 858.53 240.84 858.53 239.676L858.53 239.659C858.53 238.488 858.712 237.475 859.075 236.62C859.439 235.764 859.955 235.102 860.623 234.634C861.292 234.166 862.08 233.932 862.987 233.932C863.642 233.932 864.233 234.05 864.761 234.285C865.289 234.519 865.738 234.852 866.107 235.282C866.475 235.712 866.741 236.226 866.903 236.824L866.927 236.89L868.697 236.89L868.7 236.852C868.554 235.955 868.216 235.166 867.686 234.484C867.157 233.803 866.488 233.27 865.68 232.887C864.871 232.503 863.974 232.311 862.987 232.311C861.704 232.311 860.594 232.61 859.658 233.209C858.721 233.807 857.998 234.655 857.488 235.752C856.978 236.849 856.723 238.151 856.723 239.659L856.723 239.676C856.723 241.179 856.978 242.479 857.488 243.577C857.998 244.675 858.723 245.524 859.662 246.123C860.602 246.722 861.713 247.021 862.995 247.021Z"/>
<path d="M869.575 246.712L871.421 246.712L875.587 234.857L876.118 234.857L876.118 232.62L874.782 232.62L869.575 246.712ZM871.94 242.679L879.392 242.679L878.836 241.185L872.497 241.185L871.94 242.679ZM879.879 246.712L881.725 246.712L876.52 232.62L875.716 232.62L875.716 234.857L879.879 246.712Z"/>
</g>
<g fill="#000000" opacity="1" stroke="none">
<path d="M792.27 304.969L794.028 304.969L794.028 298.553L801.763 298.553L801.763 304.969L803.52 304.969L803.52 290.877L801.763 290.877L801.763 296.971L794.028 296.971L794.028 290.877L792.27 290.877L792.27 304.969Z"/>
<path d="M812.318 305.278C813.534 305.278 814.59 305.037 815.483 304.555C816.377 304.074 817.07 303.395 817.563 302.52C818.055 301.645 818.302 300.615 818.302 299.43L818.302 297.801L812.584 297.801L812.584 299.344L816.544 299.344L816.544 299.665C816.544 300.458 816.368 301.154 816.015 301.753C815.663 302.352 815.17 302.819 814.535 303.154C813.9 303.489 813.164 303.657 812.325 303.657C811.378 303.657 810.56 303.425 809.871 302.96C809.182 302.495 808.65 301.832 808.275 300.97C807.899 300.108 807.712 299.088 807.712 297.91L807.712 297.892C807.712 296.729 807.9 295.72 808.277 294.867C808.654 294.014 809.187 293.354 809.876 292.888C810.565 292.422 811.379 292.189 812.318 292.189C813.352 292.189 814.215 292.432 814.907 292.916C815.599 293.4 816.093 294.095 816.389 295.002L816.42 295.102L818.214 295.102L818.188 294.984C817.997 294.105 817.64 293.336 817.115 292.674C816.589 292.012 815.921 291.496 815.11 291.125C814.3 290.754 813.369 290.568 812.318 290.568C811.029 290.568 809.904 290.87 808.942 291.475C807.98 292.079 807.235 292.929 806.707 294.026C806.179 295.122 805.915 296.411 805.915 297.892L805.915 297.91C805.915 299.407 806.178 300.708 806.703 301.814C807.229 302.919 807.972 303.773 808.931 304.375C809.89 304.977 811.019 305.278 812.318 305.278Z"/>
<path d="M826.48 305.278C827.478 305.278 828.376 305.101 829.174 304.746C829.972 304.391 830.633 303.893 831.157 303.25C831.681 302.608 832.024 301.853 832.185 300.984L832.189 300.946L830.412 300.946L830.39 300.982C830.233 301.54 829.971 302.02 829.605 302.42C829.239 302.82 828.791 303.126 828.261 303.339C827.731 303.551 827.137 303.657 826.48 303.657C825.568 303.657 824.778 303.423 824.109 302.954C823.44 302.485 822.923 301.822 822.56 300.965C822.197 300.108 822.015 299.097 822.015 297.933L822.015 297.916C822.015 296.745 822.197 295.732 822.56 294.877C822.923 294.021 823.439 293.359 824.108 292.891C824.776 292.423 825.564 292.189 826.472 292.189C827.126 292.189 827.717 292.307 828.246 292.542C828.774 292.776 829.223 293.109 829.591 293.539C829.96 293.969 830.226 294.483 830.388 295.081L830.412 295.147L832.182 295.147L832.185 295.109C832.039 294.212 831.701 293.423 831.171 292.741C830.641 292.06 829.973 291.527 829.164 291.144C828.356 290.76 827.459 290.568 826.472 290.568C825.188 290.568 824.078 290.867 823.142 291.466C822.206 292.064 821.483 292.912 820.973 294.009C820.463 295.106 820.208 296.408 820.208 297.916L820.208 297.933C820.208 299.436 820.463 300.736 820.973 301.834C821.483 302.932 822.208 303.781 823.147 304.38C824.087 304.979 825.197 305.278 826.48 305.278Z"/>
<path d="M834.481 304.969L836.239 304.969L836.239 299.393L839.583 299.393C839.597 299.393 839.614 299.393 839.633 299.393C839.652 299.393 839.668 299.393 839.683 299.393L842.7 304.969L844.761 304.969L841.499 299.12C842.383 298.84 843.076 298.342 843.578 297.627C844.08 296.911 844.331 296.065 844.331 295.089L844.331 295.069C844.331 294.223 844.146 293.487 843.775 292.861C843.404 292.235 842.881 291.748 842.207 291.4C841.533 291.052 840.744 290.877 839.839 290.877L834.481 290.877L834.481 304.969ZM836.239 297.833L836.239 292.44L839.605 292.44C840.515 292.44 841.227 292.677 841.742 293.152C842.257 293.626 842.515 294.283 842.515 295.123L842.515 295.143C842.515 296.004 842.269 296.667 841.778 297.133C841.286 297.6 840.588 297.833 839.683 297.833L836.239 297.833Z"/>
<path d="M852.77 305.278C854.109 305.278 855.262 304.977 856.229 304.375C857.196 303.772 857.939 302.921 858.459 301.821C858.979 300.722 859.239 299.424 859.239 297.928L859.239 297.909C859.239 296.408 858.978 295.108 858.455 294.009C857.933 292.91 857.188 292.062 856.221 291.465C855.253 290.867 854.103 290.568 852.77 290.568C851.441 290.568 850.293 290.867 849.325 291.465C848.357 292.062 847.61 292.909 847.084 294.005C846.558 295.102 846.296 296.403 846.296 297.909L846.296 297.928C846.296 299.424 846.556 300.723 847.075 301.825C847.595 302.927 848.338 303.778 849.304 304.378C850.27 304.978 851.425 305.278 852.77 305.278ZM852.77 303.657C851.796 303.657 850.96 303.421 850.262 302.949C849.564 302.477 849.028 301.811 848.654 300.952C848.28 300.094 848.092 299.085 848.092 297.928L848.092 297.909C848.092 296.74 848.283 295.728 848.665 294.872C849.047 294.017 849.587 293.356 850.286 292.889C850.985 292.423 851.813 292.189 852.77 292.189C853.732 292.189 854.562 292.423 855.26 292.889C855.958 293.356 856.496 294.017 856.875 294.873C857.253 295.73 857.442 296.741 857.442 297.909L857.442 297.928C857.442 299.084 857.253 300.091 856.876 300.95C856.498 301.809 855.961 302.475 855.263 302.948C854.566 303.421 853.735 303.657 852.77 303.657Z"/>
<path d="M867.358 305.278C868.356 305.278 869.254 305.101 870.053 304.746C870.851 304.391 871.512 303.893 872.036 303.25C872.56 302.608 872.902 301.853 873.063 300.984L873.068 300.946L871.29 300.946L871.269 300.982C871.111 301.54 870.85 302.02 870.484 302.42C870.118 302.82 869.67 303.126 869.14 303.339C868.61 303.551 868.016 303.657 867.358 303.657C866.447 303.657 865.657 303.423 864.988 302.954C864.318 302.485 863.802 301.822 863.439 300.965C863.075 300.108 862.893 299.097 862.893 297.933L862.893 297.916C862.893 296.745 863.075 295.732 863.439 294.877C863.802 294.021 864.318 293.359 864.987 292.891C865.655 292.423 866.443 292.189 867.351 292.189C868.005 292.189 868.596 292.307 869.124 292.542C869.653 292.776 870.101 293.109 870.47 293.539C870.839 293.969 871.104 294.483 871.267 295.081L871.29 295.147L873.06 295.147L873.063 295.109C872.917 294.212 872.579 293.423 872.05 292.741C871.52 292.06 870.851 291.527 870.043 291.144C869.235 290.76 868.337 290.568 867.351 290.568C866.067 290.568 864.957 290.867 864.021 291.466C863.085 292.064 862.362 292.912 861.852 294.009C861.342 295.106 861.087 296.408 861.087 297.916L861.087 297.933C861.087 299.436 861.342 300.736 861.852 301.834C862.362 302.932 863.086 303.781 864.026 304.38C864.965 304.979 866.076 305.278 867.358 305.278Z"/>
<path d="M878.084 304.969L879.808 304.969L883.665 294.53L881.875 294.53L879.01 303.125L878.882 303.125L876.019 294.53L874.225 294.53L878.084 304.969Z"/>
<path d="M890.03 305.204C890.974 305.204 891.814 305.026 892.55 304.671C893.285 304.316 893.865 303.83 894.288 303.211C894.711 302.593 894.923 301.893 894.923 301.112L894.923 301.092C894.923 300.09 894.605 299.284 893.971 298.675C893.336 298.066 892.504 297.72 891.476 297.635L891.476 297.596C892.061 297.472 892.579 297.261 893.028 296.961C893.477 296.662 893.829 296.288 894.083 295.838C894.337 295.389 894.464 294.875 894.464 294.295L894.464 294.276C894.464 293.56 894.28 292.93 893.912 292.386C893.544 291.843 893.027 291.416 892.359 291.107C891.692 290.798 890.909 290.643 890.011 290.643C889.132 290.643 888.355 290.802 887.682 291.122C887.008 291.441 886.467 291.886 886.06 292.459C885.654 293.032 885.411 293.703 885.333 294.471L885.323 294.569L887.013 294.569L887.022 294.471C887.074 293.996 887.231 293.586 887.491 293.241C887.752 292.896 888.098 292.63 888.531 292.445C888.964 292.259 889.457 292.166 890.011 292.166C890.584 292.166 891.07 292.258 891.471 292.44C891.871 292.622 892.175 292.886 892.384 293.231C892.592 293.576 892.696 293.996 892.696 294.491L892.696 294.51C892.696 294.979 892.576 295.397 892.335 295.765C892.094 296.133 891.759 296.423 891.329 296.634C890.899 296.846 890.405 296.952 889.845 296.952L888.155 296.952L888.155 298.436L889.923 298.436C890.912 298.436 891.695 298.669 892.271 299.134C892.848 299.6 893.136 300.265 893.136 301.131L893.136 301.151C893.136 301.646 893.005 302.083 892.745 302.464C892.485 302.845 892.122 303.143 891.656 303.358C891.191 303.573 890.649 303.68 890.03 303.68C889.093 303.68 888.328 303.462 887.735 303.026C887.143 302.59 886.811 302.026 886.739 301.336L886.729 301.239L885.04 301.239L885.05 301.356C885.115 302.098 885.357 302.759 885.777 303.338C886.197 303.918 886.768 304.373 887.491 304.705C888.214 305.038 889.06 305.204 890.03 305.204Z"/>
</g>
<g fill="#000000" opacity="1" stroke="none">
<path d="M806.807 367.061L815.538 367.061L815.538 365.479L808.565 365.479L808.565 360.635L815.176 360.635L815.176 359.072L808.565 359.072L808.565 354.551L815.538 354.551L815.538 352.969L806.807 352.969L806.807 367.061Z"/>
<path d="M823.791 367.37C824.789 367.37 825.687 367.192 826.486 366.838C827.284 366.483 827.945 365.985 828.469 365.342C828.993 364.7 829.335 363.944 829.496 363.075L829.501 363.037L827.723 363.037L827.702 363.073C827.545 363.632 827.283 364.112 826.917 364.512C826.551 364.912 826.103 365.218 825.573 365.43C825.043 365.642 824.449 365.749 823.791 365.749C822.88 365.749 822.09 365.514 821.421 365.046C820.751 364.577 820.235 363.914 819.872 363.057C819.508 362.2 819.326 361.189 819.326 360.025L819.326 360.008C819.326 358.837 819.508 357.824 819.872 356.968C820.235 356.113 820.751 355.451 821.42 354.983C822.088 354.515 822.876 354.281 823.784 354.281C824.438 354.281 825.029 354.398 825.557 354.633C826.086 354.868 826.534 355.2 826.903 355.631C827.272 356.061 827.537 356.575 827.7 357.173L827.723 357.238L829.493 357.238L829.496 357.2C829.35 356.303 829.012 355.514 828.483 354.833C827.953 354.151 827.284 353.619 826.476 353.235C825.668 352.852 824.77 352.66 823.784 352.66C822.5 352.66 821.39 352.959 820.454 353.557C819.518 354.155 818.795 355.003 818.285 356.1C817.775 357.198 817.52 358.5 817.52 360.008L817.52 360.025C817.52 361.528 817.775 362.828 818.285 363.926C818.795 365.024 819.519 365.872 820.459 366.471C821.398 367.07 822.509 367.37 823.791 367.37Z"/>
<path d="M837.72 367.37C839.06 367.37 840.213 367.069 841.18 366.466C842.147 365.864 842.89 365.013 843.41 363.913C843.93 362.813 844.19 361.516 844.19 360.02L844.19 360C844.19 358.499 843.928 357.199 843.406 356.101C842.884 355.002 842.139 354.154 841.171 353.556C840.204 352.959 839.053 352.66 837.72 352.66C836.392 352.66 835.244 352.959 834.276 353.556C833.307 354.154 832.56 355 832.035 356.097C831.509 357.193 831.246 358.494 831.246 360L831.246 360.02C831.246 361.516 831.506 362.815 832.026 363.917C832.546 365.019 833.289 365.87 834.255 366.47C835.22 367.07 836.376 367.37 837.72 367.37ZM837.72 365.749C836.747 365.749 835.911 365.513 835.213 365.04C834.515 364.568 833.978 363.903 833.604 363.044C833.23 362.185 833.043 361.177 833.043 360.02L833.043 360C833.043 358.831 833.234 357.819 833.616 356.964C833.997 356.108 834.537 355.447 835.236 354.981C835.935 354.514 836.763 354.281 837.72 354.281C838.682 354.281 839.512 354.514 840.21 354.981C840.909 355.447 841.447 356.109 841.825 356.965C842.204 357.821 842.393 358.833 842.393 360L842.393 360.02C842.393 361.176 842.204 362.183 841.826 363.042C841.449 363.9 840.911 364.566 840.214 365.039C839.517 365.512 838.685 365.749 837.72 365.749Z"/>
<path d="M846.584 367.061L848.323 367.061L848.323 356.087L849.193 356.087L847.772 355.109L856.125 367.061L857.834 367.061L857.834 352.969L856.096 352.969L856.096 363.973L855.225 363.973L856.646 364.95L848.293 352.969L846.584 352.969L846.584 367.061Z"/>
<path d="M860.451 362.169L866.94 362.169L866.94 360.587L860.451 360.587L860.451 362.169Z"/>
<path d="M871.731 367.061L873.489 367.061L873.489 354.551L878.007 354.551L878.007 352.969L867.213 352.969L867.213 354.551L871.731 354.551L871.731 367.061Z"/>
</g>
<path d="M-80 900L-60 900L-60 900L-80 900L-80 900Z" fill="#ffffff" fill-opacity="0" fill-rule="nonzero" opacity="1" stroke="#000000" stroke-linecap="butt" stroke-linejoin="round" stroke-width="5"/>
<g fill="#000000" opacity="1" stroke="none">
<path d="M225.546 379.043L228.495 379.043L228.495 373.107L234.843 373.107L234.843 379.043L237.792 379.043L237.792 364.951L234.843 364.951L234.843 370.675L228.495 370.675L228.495 364.951L225.546 364.951L225.546 379.043Z"/>
<path d="M243.154 379.213C243.621 379.213 244.053 379.148 244.45 379.018C244.847 378.889 245.198 378.702 245.503 378.458C245.809 378.214 246.053 377.925 246.237 377.59L246.385 377.59L246.385 379.043L249.207 379.043L249.207 371.742C249.207 370.992 249.031 370.347 248.679 369.808C248.327 369.268 247.819 368.854 247.155 368.565C246.49 368.276 245.687 368.132 244.746 368.132C243.842 368.132 243.052 368.265 242.377 368.531C241.701 368.797 241.165 369.168 240.77 369.643C240.375 370.118 240.142 370.673 240.071 371.308L240.062 371.407L242.691 371.407L242.707 371.355C242.811 371.031 243.023 370.777 243.344 370.592C243.664 370.407 244.083 370.314 244.601 370.314C245.181 370.314 245.623 370.443 245.928 370.699C246.232 370.955 246.385 371.317 246.385 371.785L246.385 375.153C246.385 375.526 246.285 375.862 246.087 376.161C245.888 376.459 245.617 376.695 245.273 376.869C244.93 377.042 244.54 377.129 244.103 377.129C243.609 377.129 243.208 377.014 242.898 376.783C242.589 376.553 242.434 376.237 242.434 375.835L242.434 375.817C242.434 375.428 242.583 375.121 242.88 374.895C243.178 374.669 243.624 374.539 244.219 374.504L247.812 374.272L247.812 372.526L243.793 372.768C242.464 372.847 241.441 373.162 240.723 373.711C240.004 374.261 239.645 375.018 239.645 375.982L239.645 376C239.645 376.643 239.794 377.206 240.093 377.689C240.392 378.172 240.806 378.547 241.335 378.813C241.864 379.079 242.47 379.213 243.154 379.213Z"/>
<path d="M251.323 379.043L254.174 379.043L254.174 373.064C254.174 372.556 254.277 372.122 254.482 371.76C254.688 371.399 254.981 371.121 255.361 370.928C255.742 370.734 256.194 370.638 256.718 370.638C256.939 370.638 257.154 370.652 257.364 370.68C257.573 370.708 257.773 370.747 257.962 370.799L257.962 368.308C257.83 368.268 257.675 368.236 257.499 368.212C257.323 368.189 257.141 368.177 256.954 368.177C256.278 368.177 255.713 368.342 255.257 368.673C254.802 369.003 254.49 369.469 254.322 370.069L254.174 370.069L254.174 368.358L251.323 368.358L251.323 379.043Z"/>
<path d="M262.814 379.224C263.574 379.224 264.231 379.059 264.786 378.729C265.34 378.399 265.756 377.94 266.033 377.35L266.181 377.35L266.181 379.043L269.033 379.043L269.033 364.362L266.181 364.362L266.181 370.101L266.033 370.101C265.759 369.503 265.339 369.033 264.773 368.691C264.207 368.348 263.553 368.177 262.813 368.177C261.912 368.177 261.138 368.397 260.491 368.837C259.843 369.278 259.345 369.91 258.996 370.733C258.647 371.556 258.473 372.542 258.473 373.691L258.473 373.708C258.473 374.848 258.649 375.831 259.001 376.656C259.353 377.481 259.855 378.115 260.505 378.559C261.156 379.002 261.925 379.224 262.814 379.224ZM263.781 376.861C263.287 376.861 262.859 376.735 262.498 376.482C262.138 376.229 261.86 375.867 261.665 375.394C261.471 374.922 261.374 374.36 261.374 373.708L261.374 373.691C261.374 373.038 261.471 372.476 261.666 372.006C261.861 371.536 262.139 371.174 262.501 370.92C262.862 370.667 263.289 370.54 263.781 370.54C264.273 370.54 264.7 370.667 265.062 370.922C265.424 371.176 265.705 371.538 265.905 372.009C266.105 372.479 266.205 373.042 266.205 373.696L266.205 373.713C266.205 374.361 266.106 374.921 265.908 375.393C265.71 375.865 265.43 376.228 265.067 376.481C264.704 376.734 264.276 376.861 263.781 376.861Z"/>
<path d="M273.326 379.043L276.312 379.043L278.215 371.566L278.363 371.566L280.281 379.043L283.31 379.043L286.151 368.358L283.33 368.358L281.732 376.141L281.584 376.141L279.691 368.358L276.973 368.358L275.095 376.141L274.947 376.141L273.349 368.358L270.474 368.358L273.326 379.043Z"/>
<path d="M290.178 379.213C290.644 379.213 291.076 379.148 291.473 379.018C291.87 378.889 292.222 378.702 292.527 378.458C292.832 378.214 293.076 377.925 293.26 377.59L293.408 377.59L293.408 379.043L296.23 379.043L296.23 371.742C296.23 370.992 296.054 370.347 295.702 369.808C295.35 369.268 294.842 368.854 294.178 368.565C293.514 368.276 292.711 368.132 291.769 368.132C290.865 368.132 290.076 368.265 289.4 368.531C288.724 368.797 288.189 369.168 287.793 369.643C287.398 370.118 287.165 370.673 287.095 371.308L287.085 371.407L289.715 371.407L289.73 371.355C289.834 371.031 290.047 370.777 290.367 370.592C290.687 370.407 291.106 370.314 291.625 370.314C292.204 370.314 292.647 370.443 292.951 370.699C293.256 370.955 293.408 371.317 293.408 371.785L293.408 375.153C293.408 375.526 293.309 375.862 293.11 376.161C292.911 376.459 292.64 376.695 292.297 376.869C291.953 377.042 291.563 377.129 291.127 377.129C290.633 377.129 290.231 377.014 289.921 376.783C289.612 376.553 289.457 376.237 289.457 375.835L289.457 375.817C289.457 375.428 289.606 375.121 289.903 374.895C290.201 374.669 290.647 374.539 291.242 374.504L294.835 374.272L294.835 372.526L290.816 372.768C289.488 372.847 288.464 373.162 287.746 373.711C287.027 374.261 286.668 375.018 286.668 375.982L286.668 376C286.668 376.643 286.818 377.206 287.116 377.689C287.415 378.172 287.829 378.547 288.358 378.813C288.887 379.079 289.493 379.213 290.178 379.213Z"/>
<path d="M298.346 379.043L301.198 379.043L301.198 373.064C301.198 372.556 301.3 372.122 301.506 371.76C301.711 371.399 302.004 371.121 302.385 370.928C302.766 370.734 303.218 370.638 303.741 370.638C303.962 370.638 304.177 370.652 304.387 370.68C304.596 370.708 304.796 370.747 304.985 370.799L304.985 368.308C304.853 368.268 304.699 368.236 304.522 368.212C304.346 368.189 304.164 368.177 303.977 368.177C303.301 368.177 302.736 368.342 302.281 368.673C301.825 369.003 301.514 369.469 301.346 370.069L301.198 370.069L301.198 368.358L298.346 368.358L298.346 379.043Z"/>
<path d="M310.73 379.269C311.505 379.269 312.179 379.169 312.75 378.97C313.322 378.771 313.802 378.512 314.189 378.191C314.577 377.871 314.882 377.524 315.106 377.151C315.33 376.778 315.482 376.418 315.564 376.071L315.588 375.967L312.941 375.97L312.914 376.029C312.849 376.178 312.727 376.339 312.547 376.511C312.368 376.684 312.133 376.831 311.841 376.953C311.55 377.075 311.199 377.136 310.788 377.136C310.279 377.136 309.839 377.024 309.47 376.798C309.101 376.572 308.817 376.247 308.618 375.822C308.419 375.397 308.32 374.885 308.32 374.287L308.32 373.148C308.32 372.53 308.421 372.006 308.622 371.576C308.823 371.146 309.099 370.82 309.451 370.598C309.803 370.376 310.206 370.265 310.661 370.265C311.119 370.265 311.52 370.372 311.866 370.588C312.211 370.804 312.481 371.125 312.676 371.553C312.871 371.98 312.968 372.512 312.968 373.148L312.968 374.277L314.31 372.59L306.916 372.59L306.916 374.379L315.676 374.379L315.676 373.497C315.676 372.417 315.471 371.475 315.061 370.671C314.651 369.867 314.067 369.243 313.309 368.799C312.551 368.354 311.652 368.132 310.612 368.132C309.573 368.132 308.67 368.361 307.904 368.818C307.138 369.276 306.545 369.922 306.126 370.756C305.706 371.591 305.496 372.575 305.496 373.71L305.496 373.72C305.496 374.861 305.707 375.846 306.128 376.676C306.548 377.506 307.149 378.146 307.93 378.595C308.711 379.044 309.645 379.269 310.73 379.269Z"/>
</g>
<g fill="#000000" opacity="1" stroke="none">
<path d="M373.799 379.377C374.974 379.377 375.986 379.192 376.835 378.822C377.685 378.453 378.337 377.929 378.794 377.252C379.25 376.574 379.478 375.774 379.478 374.85L379.478 374.84C379.478 373.74 379.138 372.873 378.457 372.24C377.776 371.607 376.691 371.14 375.201 370.838L373.711 370.533C372.886 370.365 372.288 370.138 371.918 369.854C371.548 369.57 371.363 369.201 371.363 368.748L371.363 368.738C371.363 368.388 371.463 368.084 371.664 367.827C371.865 367.571 372.147 367.371 372.51 367.229C372.873 367.086 373.298 367.015 373.785 367.015C374.278 367.012 374.711 367.084 375.086 367.23C375.46 367.376 375.761 367.576 375.988 367.832C376.215 368.088 376.355 368.389 376.409 368.735L376.427 368.852L379.207 368.852L379.197 368.717C379.139 367.92 378.889 367.214 378.447 366.597C378.006 365.98 377.392 365.496 376.606 365.145C375.82 364.793 374.879 364.617 373.785 364.617C372.744 364.617 371.819 364.798 371.012 365.158C370.204 365.518 369.57 366.022 369.109 366.671C368.649 367.319 368.417 368.078 368.413 368.947L368.413 368.957C368.413 370.026 368.751 370.9 369.425 371.579C370.1 372.258 371.159 372.745 372.603 373.039L374.092 373.341C374.968 373.52 375.593 373.748 375.967 374.026C376.341 374.303 376.529 374.675 376.529 375.14L376.529 375.15C376.529 375.508 376.417 375.825 376.195 376.102C375.972 376.378 375.662 376.593 375.265 376.748C374.869 376.902 374.404 376.979 373.872 376.979C373.329 376.979 372.845 376.905 372.422 376.756C372 376.607 371.662 376.4 371.409 376.134C371.157 375.869 371.008 375.559 370.963 375.206L370.951 375.108L368.119 375.108L368.129 375.262C368.187 376.102 368.452 376.83 368.925 377.446C369.398 378.061 370.048 378.537 370.876 378.873C371.703 379.209 372.678 379.377 373.799 379.377Z"/>
<path d="M386.082 379.269C387.177 379.269 388.119 379.047 388.906 378.603C389.693 378.159 390.298 377.521 390.722 376.69C391.145 375.86 391.357 374.865 391.357 373.705L391.357 373.686C391.357 372.533 391.143 371.542 390.715 370.713C390.286 369.884 389.678 369.246 388.891 368.801C388.103 368.355 387.166 368.132 386.081 368.132C385.002 368.132 384.068 368.356 383.279 368.803C382.491 369.25 381.881 369.889 381.452 370.718C381.022 371.548 380.807 372.537 380.807 373.686L380.807 373.705C380.807 374.863 381.019 375.857 381.444 376.689C381.868 377.52 382.475 378.158 383.264 378.602C384.052 379.047 384.992 379.269 386.082 379.269ZM386.084 377.033C385.588 377.033 385.164 376.902 384.812 376.64C384.46 376.378 384.19 375.999 384.003 375.503C383.816 375.007 383.722 374.409 383.722 373.709L383.722 373.69C383.722 372.993 383.817 372.397 384.006 371.903C384.194 371.409 384.465 371.03 384.817 370.765C385.169 370.501 385.59 370.368 386.081 370.368C386.576 370.368 386.998 370.5 387.349 370.765C387.7 371.029 387.97 371.408 388.159 371.903C388.348 372.397 388.442 372.993 388.442 373.69L388.442 373.709C388.442 374.407 388.349 375.004 388.162 375.5C387.975 375.995 387.706 376.375 387.356 376.638C387.006 376.901 386.582 377.033 386.084 377.033Z"/>
<path d="M393.836 379.043L396.687 379.043L396.687 370.506L398.855 370.506L398.855 368.358L396.626 368.358L396.626 367.57C396.626 367.121 396.74 366.778 396.968 366.541C397.195 366.304 397.575 366.186 398.106 366.186C398.279 366.186 398.436 366.191 398.579 366.2C398.722 366.209 398.838 366.222 398.928 366.239L398.928 364.343C398.733 364.31 398.513 364.284 398.267 364.263C398.021 364.243 397.755 364.233 397.469 364.233C396.188 364.233 395.262 364.496 394.692 365.021C394.121 365.547 393.836 366.339 393.836 367.396L393.836 368.358L392.172 368.358L392.172 370.506L393.836 370.506L393.836 379.043Z"/>
<path d="M404.955 379.124C405.237 379.124 405.5 379.112 405.745 379.088C405.989 379.064 406.198 379.036 406.37 379.005L406.37 376.894C406.245 376.906 406.124 376.917 406.009 376.925C405.894 376.934 405.752 376.938 405.583 376.938C405.113 376.938 404.768 376.83 404.549 376.613C404.33 376.397 404.221 376.047 404.221 375.563L404.221 370.506L406.37 370.506L406.37 368.358L404.221 368.358L404.221 365.793L401.34 365.793L401.34 368.358L399.732 368.358L399.732 370.506L401.34 370.506L401.34 376.141C401.34 377.201 401.625 377.963 402.194 378.427C402.764 378.891 403.684 379.124 404.955 379.124Z"/>
<path d="M410.137 379.043L413.123 379.043L415.026 371.566L415.174 371.566L417.092 379.043L420.122 379.043L422.962 368.358L420.141 368.358L418.543 376.141L418.395 376.141L416.502 368.358L413.784 368.358L411.906 376.141L411.758 376.141L410.16 368.358L407.285 368.358L410.137 379.043Z"/>
<path d="M426.989 379.213C427.455 379.213 427.887 379.148 428.284 379.018C428.682 378.889 429.033 378.702 429.338 378.458C429.643 378.214 429.887 377.925 430.071 377.59L430.219 377.59L430.219 379.043L433.041 379.043L433.041 371.742C433.041 370.992 432.865 370.347 432.513 369.808C432.162 369.268 431.654 368.854 430.989 368.565C430.325 368.276 429.522 368.132 428.58 368.132C427.676 368.132 426.887 368.265 426.211 368.531C425.535 368.797 425 369.168 424.604 369.643C424.209 370.118 423.976 370.673 423.906 371.308L423.896 371.407L426.526 371.407L426.542 371.355C426.646 371.031 426.858 370.777 427.178 370.592C427.498 370.407 427.918 370.314 428.436 370.314C429.016 370.314 429.458 370.443 429.762 370.699C430.067 370.955 430.219 371.317 430.219 371.785L430.219 375.153C430.219 375.526 430.12 375.862 429.921 376.161C429.722 376.459 429.451 376.695 429.108 376.869C428.764 377.042 428.374 377.129 427.938 377.129C427.444 377.129 427.042 377.014 426.732 376.783C426.423 376.553 426.268 376.237 426.268 375.835L426.268 375.817C426.268 375.428 426.417 375.121 426.715 374.895C427.012 374.669 427.459 374.539 428.053 374.504L431.646 374.272L431.646 372.526L427.628 372.768C426.299 372.847 425.275 373.162 424.557 373.711C423.839 374.261 423.479 375.018 423.479 375.982L423.479 376C423.479 376.643 423.629 377.206 423.928 377.689C424.226 378.172 424.64 378.547 425.169 378.813C425.698 379.079 426.305 379.213 426.989 379.213Z"/>
<path d="M435.157 379.043L438.009 379.043L438.009 373.064C438.009 372.556 438.112 372.122 438.317 371.76C438.522 371.399 438.815 371.121 439.196 370.928C439.577 370.734 440.029 370.638 440.552 370.638C440.773 370.638 440.988 370.652 441.198 370.68C441.408 370.708 441.607 370.747 441.796 370.799L441.796 368.308C441.664 368.268 441.51 368.236 441.333 368.212C441.157 368.189 440.975 368.177 440.788 368.177C440.113 368.177 439.547 368.342 439.092 368.673C438.636 369.003 438.325 369.469 438.157 370.069L438.009 370.069L438.009 368.358L435.157 368.358L435.157 379.043Z"/>
<path d="M447.541 379.269C448.316 379.269 448.99 379.169 449.562 378.97C450.134 378.771 450.613 378.512 451.001 378.191C451.388 377.871 451.694 377.524 451.917 377.151C452.141 376.778 452.294 376.418 452.375 376.071L452.399 375.967L449.752 375.97L449.725 376.029C449.66 376.178 449.538 376.339 449.359 376.511C449.179 376.684 448.944 376.831 448.652 376.953C448.361 377.075 448.01 377.136 447.599 377.136C447.09 377.136 446.65 377.024 446.281 376.798C445.912 376.572 445.628 376.247 445.429 375.822C445.23 375.397 445.131 374.885 445.131 374.287L445.131 373.148C445.131 372.53 445.232 372.006 445.433 371.576C445.634 371.146 445.91 370.82 446.262 370.598C446.614 370.376 447.017 370.265 447.472 370.265C447.93 370.265 448.332 370.372 448.677 370.588C449.022 370.804 449.292 371.125 449.487 371.553C449.682 371.98 449.78 372.512 449.78 373.148L449.78 374.277L451.121 372.59L443.727 372.59L443.727 374.379L452.487 374.379L452.487 373.497C452.487 372.417 452.282 371.475 451.872 370.671C451.462 369.867 450.878 369.243 450.12 368.799C449.362 368.354 448.463 368.132 447.424 368.132C446.384 368.132 445.481 368.361 444.715 368.818C443.949 369.276 443.357 369.922 442.937 370.756C442.517 371.591 442.308 372.575 442.308 373.71L442.308 373.72C442.308 374.861 442.518 375.846 442.939 376.676C443.36 377.506 443.961 378.146 444.742 378.595C445.523 379.044 446.456 379.269 447.541 379.269Z"/>
</g>
</g>
</svg>
