<?xml version="1.0" encoding="UTF-8" standalone="no"?>
<!DOCTYPE svg PUBLIC "-//W3C//DTD SVG 1.1//EN" "http://www.w3.org/Graphics/SVG/1.1/DTD/svg11.dtd">
<!-- Created with Vectornator (http://vectornator.io/) -->
<svg height="100%" stroke-miterlimit="10" style="fill-rule:nonzero;clip-rule:evenodd;stroke-linecap:round;stroke-linejoin:round;" version="1.1" viewBox="0 0 950 440" width="100%" xml:space="preserve" xmlns="http://www.w3.org/2000/svg" xmlns:vectornator="http://vectornator.io" xmlns:xlink="http://www.w3.org/1999/xlink">
<defs/>
<g id="Layer-1" vectornator:layerName="Layer 1">
<path d="M395 190L425 190C427.761 190 430 192.239 430 195L430 225C430 227.761 427.761 230 425 230L395 230C392.239 230 390 227.761 390 225L390 195C390 192.239 392.239 190 395 190Z" fill="#00cfec" fill-rule="nonzero" opacity="1" stroke="#000000" stroke-linecap="butt" stroke-linejoin="round" stroke-width="3.5"/>
<path d="M195 190L225 190C227.761 190 230 192.239 230 195L230 225C230 227.761 227.761 230 225 230L195 230C192.239 230 190 227.761 190 225L190 195C190 192.239 192.239 190 195 190Z" fill="#0033ff" fill-rule="nonzero" opacity="1" stroke="#000000" stroke-linecap="butt" stroke-linejoin="round" stroke-width="3.5"/>
<path d="M35 190L65 190C67.7614 190 70 192.239 70 195L70 225C70 227.761 67.7614 230 65 230L35 230C32.2386 230 30 227.761 30 225L30 195C30 192.239 32.2386 190 35 190Z" fill="#8d96ff" fill-rule="nonzero" opacity="1" stroke="#000000" stroke-linecap="butt" stroke-linejoin="round" stroke-width="3.5"/>
<path d="M475 190L505 190C507.761 190 510 192.239 510 195L510 225C510 227.761 507.761 230 505 230L475 230C472.239 230 470 227.761 470 225L470 195C470 192.239 472.239 190 475 190Z" fill="#a0ef59" fill-rule="nonzero" opacity="1" stroke="#000000" stroke-linecap="butt" stroke-linejoin="round" stroke-width="3.5"/>
<path d="M675 190L705 190C707.761 190 710 192.239 710 195L710 225C710 227.761 707.761 230 705 230L675 230C672.239 230 670 227.761 670 225L670 195C670 192.239 672.239 190 675 190Z" fill="#0f8a00" fill-rule="nonzero" opacity="1" stroke="#000000" stroke-linecap="butt" stroke-linejoin="round" stroke-width="3.5"/>
<path d="M835 190L865 190C867.761 190 870 192.239 870 195L870 225C870 227.761 867.761 230 865 230L835 230C832.239 230 830 227.761 830 225L830 195C830 192.239 832.239 190 835 190Z" fill="#e2ff3b" fill-rule="nonzero" opacity="1" stroke="#000000" stroke-linecap="butt" stroke-linejoin="round" stroke-width="3.5"/>
<g opacity="1">
<path d="M690.175 165.48C693.068 128.495 731.534 110 770 110C810 110 850 130 850 170" fill="none" stroke="#000000" stroke-linecap="butt" stroke-linejoin="round" stroke-width="3.5"/>
<g fill="#000000" stroke="none">
<path d="M678.714 155.055L688.711 168.284L690 169.991L691.418 168.389L702.406 155.971C703.046 155.247 702.978 154.141 702.255 153.5C701.531 152.86 700.425 152.927 699.784 153.651L688.796 166.07L691.503 166.174L681.507 152.945C680.924 152.174 679.827 152.021 679.056 152.604C678.284 153.186 678.132 154.284 678.714 155.055Z" fill="#000000"/>
</g>
</g>
<g opacity="1">
<path d="M490.078 254.53C492.057 311.009 531.533 330 590 330C650 330 690 310 690 250" fill="none" stroke="#000000" stroke-linecap="butt" stroke-linejoin="round" stroke-width="3.5"/>
<g fill="#000000" stroke="none">
<path d="M502.103 264.298L491.383 251.649L490 250.017L488.675 251.695L478.398 264.708C477.799 265.467 477.928 266.567 478.687 267.166C479.445 267.765 480.546 267.636 481.145 266.877L491.421 253.865L488.713 253.911L499.433 266.561C500.058 267.299 501.162 267.39 501.9 266.765C502.637 266.14 502.728 265.036 502.103 264.298Z" fill="#000000"/>
</g>
</g>
<g opacity="1">
<path d="M410.331 165.497C413.006 147.107 431.503 130 450 130C470 130 490 150 490 170" fill="none" stroke="#000000" stroke-linecap="butt" stroke-linejoin="round" stroke-width="3.5"/>
<g fill="#000000" stroke="none">
<path d="M399.239 154.68L408.771 168.248L410 169.998L411.472 168.446L422.884 156.417C423.549 155.715 423.52 154.608 422.819 153.943C422.118 153.277 421.01 153.307 420.345 154.008L408.933 166.037L411.635 166.236L402.103 152.668C401.547 151.877 400.456 151.686 399.665 152.242C398.874 152.797 398.683 153.889 399.239 154.68Z" fill="#000000"/>
</g>
</g>
<g opacity="1">
<path d="M210.169 254.522C213.04 292.955 252.259 330 310 330C370 330 410 290 410 250" fill="none" stroke="#000000" stroke-linecap="butt" stroke-linejoin="round" stroke-width="3.5"/>
<g fill="#000000" stroke="none">
<path d="M222.389 264.046L211.416 251.615L210 250.011L208.709 251.716L198.697 264.934C198.113 265.704 198.265 266.802 199.035 267.386C199.806 267.969 200.903 267.818 201.487 267.047L211.499 253.83L208.792 253.931L219.765 266.362C220.405 267.087 221.511 267.156 222.235 266.516C222.96 265.876 223.029 264.771 222.389 264.046Z" fill="#000000"/>
</g>
</g>
<g opacity="1">
<path d="M50.1747 165.48C53.068 128.495 91.534 110 130 110C170 110 210 130 210 170" fill="none" stroke="#000000" stroke-linecap="butt" stroke-linejoin="round" stroke-width="3.5"/>
<g fill="#000000" stroke="none">
<path d="M38.7144 155.055L48.7109 168.284L50.0004 169.991L51.4177 168.389L62.4055 155.971C63.046 155.247 62.9784 154.141 62.2546 153.5C61.5307 152.86 60.4247 152.927 59.7843 153.651L48.7965 166.07L51.5033 166.174L41.5068 152.945C40.9241 152.174 39.8267 152.021 39.0555 152.604C38.2844 153.186 38.1317 154.284 38.7144 155.055Z" fill="#000000"/>
</g>
</g>
<path d="M750 60C750 43.4315 763.431 30 780 30C796.569 30 810 43.4315 810 60C810 76.5685 796.569 90 780 90C763.431 90 750 76.5685 750 60Z" fill="#8996b1" fill-opacity="0.33518" fill-rule="nonzero" opacity="1" stroke="#000000" stroke-linecap="butt" stroke-linejoin="round" stroke-width="3.5"/>
<path d="M780.264 68.6434L782.82 68.6434L782.82 47.4473L780.235 47.4473L774.594 51.5014L774.594 54.1601L780.206 50.2529L780.264 50.2529L780.264 68.6434Z" fill="#000000" opacity="1" stroke="none"/>
<path d="M755 130L785 130C787.761 130 790 132.239 790 135L790 145C790 147.761 787.761 150 785 150L755 150C752.239 150 750 147.761 750 145L750 135C750 132.239 752.239 130 755 130Z" fill="#e3f501" fill-rule="nonzero" opacity="1" stroke="#000000" stroke-linecap="butt" stroke-linejoin="round" stroke-width="3.5"/>
<g fill="#000000" opacity="1" stroke="none">
<path d="M814.835 299.043L816.593 299.043L816.593 293.467L819.937 293.467C819.951 293.467 819.968 293.467 819.987 293.467C820.006 293.467 820.022 293.467 820.037 293.467L823.054 299.043L825.115 299.043L821.853 293.193C822.737 292.913 823.43 292.416 823.932 291.7C824.434 290.985 824.685 290.139 824.685 289.162L824.685 289.143C824.685 288.297 824.5 287.561 824.129 286.935C823.758 286.309 823.235 285.822 822.561 285.474C821.887 285.125 821.098 284.951 820.193 284.951L814.835 284.951L814.835 299.043ZM816.593 291.907L816.593 286.514L819.959 286.514C820.869 286.514 821.581 286.751 822.096 287.225C822.611 287.7 822.869 288.357 822.869 289.197L822.869 289.216C822.869 290.077 822.623 290.741 822.132 291.207C821.64 291.673 820.942 291.907 820.037 291.907L816.593 291.907Z"/>
<path d="M833.124 299.352C834.463 299.352 835.616 299.051 836.583 298.448C837.55 297.846 838.293 296.995 838.813 295.895C839.333 294.796 839.593 293.498 839.593 292.002L839.593 291.982C839.593 290.482 839.332 289.182 838.809 288.083C838.287 286.984 837.542 286.136 836.575 285.538C835.607 284.941 834.457 284.642 833.124 284.642C831.795 284.642 830.647 284.941 829.679 285.538C828.711 286.136 827.964 286.983 827.438 288.079C826.912 289.175 826.65 290.477 826.65 291.982L826.65 292.002C826.65 293.498 826.909 294.797 827.429 295.899C827.949 297.001 828.692 297.852 829.658 298.452C830.624 299.052 831.779 299.352 833.124 299.352ZM833.124 297.731C832.15 297.731 831.314 297.495 830.616 297.023C829.918 296.55 829.382 295.885 829.008 295.026C828.633 294.167 828.446 293.159 828.446 292.002L828.446 291.982C828.446 290.814 828.637 289.801 829.019 288.946C829.4 288.09 829.941 287.429 830.64 286.963C831.339 286.497 832.167 286.263 833.124 286.263C834.086 286.263 834.916 286.497 835.614 286.963C836.312 287.429 836.85 288.091 837.229 288.947C837.607 289.803 837.796 290.815 837.796 291.982L837.796 292.002C837.796 293.158 837.607 294.165 837.23 295.024C836.852 295.883 836.315 296.548 835.617 297.021C834.92 297.494 834.089 297.731 833.124 297.731Z"/>
<path d="M847.712 299.352C848.71 299.352 849.608 299.175 850.407 298.82C851.205 298.465 851.866 297.967 852.39 297.324C852.914 296.682 853.256 295.926 853.417 295.058L853.422 295.02L851.644 295.02L851.622 295.055C851.465 295.614 851.204 296.094 850.838 296.494C850.472 296.894 850.024 297.2 849.494 297.412C848.963 297.625 848.37 297.731 847.712 297.731C846.801 297.731 846.011 297.496 845.342 297.028C844.672 296.559 844.156 295.896 843.793 295.039C843.429 294.182 843.247 293.171 843.247 292.007L843.247 291.99C843.247 290.819 843.429 289.806 843.793 288.951C844.156 288.095 844.672 287.433 845.34 286.965C846.009 286.497 846.797 286.263 847.705 286.263C848.359 286.263 848.95 286.381 849.478 286.615C850.007 286.85 850.455 287.183 850.824 287.613C851.193 288.043 851.458 288.557 851.621 289.155L851.644 289.221L853.414 289.221L853.417 289.183C853.271 288.286 852.933 287.496 852.404 286.815C851.874 286.134 851.205 285.601 850.397 285.218C849.589 284.834 848.691 284.642 847.705 284.642C846.421 284.642 845.311 284.941 844.375 285.539C843.439 286.138 842.716 286.985 842.206 288.083C841.696 289.18 841.441 290.482 841.441 291.99L841.441 292.007C841.441 293.51 841.696 294.81 842.206 295.908C842.716 297.006 843.44 297.855 844.38 298.454C845.319 299.052 846.43 299.352 847.712 299.352Z"/>
<path d="M866.254 299.352C867.252 299.352 868.15 299.175 868.949 298.82C869.747 298.465 870.408 297.967 870.932 297.324C871.456 296.682 871.798 295.926 871.959 295.058L871.964 295.02L870.186 295.02L870.165 295.055C870.008 295.614 869.746 296.094 869.38 296.494C869.014 296.894 868.566 297.2 868.036 297.412C867.506 297.625 866.912 297.731 866.254 297.731C865.343 297.731 864.553 297.496 863.884 297.028C863.214 296.559 862.698 295.896 862.335 295.039C861.971 294.182 861.79 293.171 861.79 292.007L861.79 291.99C861.79 290.819 861.971 289.806 862.335 288.951C862.698 288.095 863.214 287.433 863.883 286.965C864.551 286.497 865.339 286.263 866.247 286.263C866.901 286.263 867.492 286.381 868.02 286.615C868.549 286.85 868.997 287.183 869.366 287.613C869.735 288.043 870 288.557 870.163 289.155L870.186 289.221L871.956 289.221L871.959 289.183C871.813 288.286 871.475 287.496 870.946 286.815C870.416 286.134 869.747 285.601 868.939 285.218C868.131 284.834 867.233 284.642 866.247 284.642C864.963 284.642 863.853 284.941 862.917 285.539C861.981 286.138 861.258 286.985 860.748 288.083C860.238 289.18 859.983 290.482 859.983 291.99L859.983 292.007C859.983 293.51 860.238 294.81 860.748 295.908C861.258 297.006 861.982 297.855 862.922 298.454C863.861 299.052 864.972 299.352 866.254 299.352Z"/>
<path d="M878.328 299.231C879.315 299.231 880.168 299.012 880.886 298.575C881.604 298.138 882.16 297.515 882.554 296.708C882.948 295.9 883.145 294.941 883.145 293.831L883.145 293.811C883.145 292.696 882.948 291.734 882.554 290.927C882.16 290.121 881.604 289.5 880.885 289.066C880.166 288.632 879.313 288.416 878.326 288.416C877.345 288.416 876.494 288.632 875.773 289.066C875.052 289.5 874.494 290.121 874.1 290.927C873.706 291.734 873.509 292.696 873.509 293.811L873.509 293.831C873.509 294.94 873.706 295.898 874.1 296.707C874.494 297.515 875.052 298.138 875.773 298.575C876.494 299.012 877.346 299.231 878.328 299.231ZM878.331 297.727C877.682 297.727 877.128 297.573 876.67 297.264C876.211 296.955 875.86 296.511 875.615 295.93C875.37 295.35 875.248 294.65 875.248 293.831L875.248 293.811C875.248 292.987 875.37 292.285 875.615 291.706C875.86 291.127 876.211 290.685 876.67 290.379C877.128 290.073 877.68 289.919 878.326 289.919C878.975 289.919 879.528 290.072 879.986 290.378C880.445 290.683 880.796 291.125 881.04 291.705C881.284 292.285 881.406 292.987 881.406 293.811L881.406 293.831C881.406 294.65 881.284 295.35 881.04 295.93C880.796 296.511 880.446 296.955 879.989 297.264C879.532 297.573 878.979 297.727 878.331 297.727Z"/>
<path d="M885.113 299.043L886.812 299.043L886.812 292.872C886.812 292.263 886.924 291.739 887.147 291.299C887.37 290.859 887.685 290.52 888.092 290.28C888.499 290.039 888.98 289.919 889.533 289.919C890.359 289.919 890.971 290.147 891.368 290.601C891.766 291.055 891.964 291.743 891.964 292.664L891.964 299.043L893.663 299.043L893.663 292.28C893.663 291.051 893.348 290.1 892.718 289.426C892.088 288.752 891.189 288.416 890.021 288.416C889.248 288.416 888.608 288.57 888.102 288.879C887.597 289.189 887.209 289.613 886.941 290.153L886.812 290.153L886.812 288.603L885.113 288.603L885.113 299.043Z"/>
<path d="M896.732 299.043L898.431 299.043L898.431 290.01L900.748 290.01L900.748 288.603L898.427 288.603L898.427 287.453C898.427 286.892 898.555 286.47 898.812 286.189C899.069 285.908 899.484 285.767 900.057 285.767C900.202 285.767 900.342 285.77 900.476 285.777C900.611 285.783 900.73 285.795 900.834 285.813L900.834 284.451C900.671 284.422 900.496 284.399 900.309 284.384C900.123 284.368 899.928 284.361 899.724 284.361C898.742 284.361 897.998 284.612 897.492 285.113C896.985 285.615 896.732 286.382 896.732 287.413L896.732 288.603L895.063 288.603L895.063 290.01L896.732 290.01L896.732 299.043Z"/>
<path d="M902.634 299.043L904.333 299.043L904.333 288.603L902.634 288.603L902.634 299.043ZM903.491 286.646C903.81 286.646 904.081 286.533 904.304 286.307C904.526 286.082 904.637 285.812 904.637 285.499C904.637 285.18 904.526 284.909 904.304 284.687C904.081 284.464 903.81 284.353 903.491 284.353C903.178 284.353 902.909 284.464 902.683 284.687C902.457 284.909 902.344 285.18 902.344 285.499C902.344 285.812 902.457 286.082 902.683 286.307C902.909 286.533 903.178 286.646 903.491 286.646Z"/>
<path d="M911.203 302.731C912.151 302.731 912.973 302.572 913.668 302.255C914.364 301.938 914.9 301.489 915.277 300.909C915.654 300.328 915.843 299.647 915.843 298.864L915.843 288.603L914.143 288.603L914.143 290.337L914.045 290.337C913.831 289.944 913.564 289.605 913.244 289.319C912.923 289.032 912.556 288.81 912.142 288.652C911.729 288.494 911.276 288.416 910.784 288.416C909.88 288.416 909.097 288.634 908.437 289.071C907.776 289.508 907.264 290.111 906.901 290.879C906.538 291.647 906.356 292.531 906.356 293.531L906.356 293.548C906.356 294.548 906.536 295.432 906.895 296.199C907.253 296.966 907.762 297.566 908.42 297.999C909.077 298.432 909.852 298.648 910.745 298.648C911.228 298.648 911.678 298.577 912.094 298.434C912.51 298.291 912.882 298.083 913.211 297.809C913.54 297.536 913.813 297.208 914.03 296.825L914.158 296.825L914.158 298.758C914.158 299.536 913.898 300.142 913.377 300.576C912.857 301.01 912.131 301.227 911.199 301.227C910.459 301.227 909.86 301.104 909.402 300.857C908.944 300.611 908.661 300.293 908.553 299.904L908.536 299.875L906.79 299.875L906.78 299.904C906.875 300.46 907.111 300.951 907.487 301.378C907.863 301.805 908.366 302.137 908.995 302.374C909.624 302.612 910.36 302.731 911.203 302.731ZM911.116 297.144C910.477 297.144 909.933 296.993 909.483 296.69C909.033 296.388 908.689 295.967 908.451 295.427C908.213 294.888 908.095 294.262 908.095 293.548L908.095 293.531C908.095 292.821 908.213 292.194 908.451 291.65C908.689 291.107 909.033 290.682 909.483 290.377C909.933 290.072 910.477 289.919 911.116 289.919C911.749 289.919 912.294 290.072 912.753 290.378C913.211 290.684 913.565 291.109 913.814 291.653C914.064 292.196 914.188 292.822 914.188 293.531L914.188 293.548C914.188 294.257 914.064 294.882 913.814 295.422C913.565 295.962 913.212 296.384 912.754 296.688C912.296 296.992 911.75 297.144 911.116 297.144Z"/>
<path d="M850.976 323.098C851.71 323.098 852.358 322.932 852.921 322.6C853.483 322.268 853.924 321.809 854.243 321.221L854.372 321.221L854.372 322.91L856.071 322.91L856.071 308.349L854.372 308.349L854.372 314.14L854.243 314.14C853.949 313.574 853.51 313.123 852.926 312.787C852.342 312.451 851.69 312.283 850.969 312.283C850.088 312.283 849.318 312.505 848.661 312.951C848.004 313.396 847.494 314.023 847.13 314.83C846.766 315.638 846.585 316.588 846.585 317.681L846.585 317.698C846.585 318.785 846.766 319.735 847.129 320.546C847.492 321.356 848.004 321.985 848.664 322.43C849.324 322.875 850.095 323.098 850.976 323.098ZM851.352 321.594C850.723 321.594 850.182 321.438 849.729 321.125C849.275 320.812 848.927 320.364 848.686 319.78C848.444 319.196 848.323 318.502 848.323 317.698L848.323 317.681C848.323 316.871 848.444 316.176 848.686 315.597C848.927 315.017 849.275 314.57 849.729 314.257C850.182 313.943 850.723 313.787 851.352 313.787C851.975 313.787 852.515 313.945 852.972 314.263C853.428 314.58 853.781 315.029 854.03 315.61C854.279 316.19 854.404 316.881 854.404 317.681L854.404 317.698C854.404 318.493 854.279 319.182 854.031 319.766C853.783 320.35 853.43 320.8 852.973 321.118C852.515 321.435 851.975 321.594 851.352 321.594Z"/>
<path d="M861.564 323.098C862.035 323.098 862.47 323.029 862.869 322.891C863.268 322.753 863.627 322.552 863.945 322.287C864.263 322.023 864.53 321.705 864.745 321.334L864.874 321.334L864.874 322.91L866.573 322.91L866.573 315.747C866.573 315.03 866.417 314.413 866.106 313.895C865.794 313.377 865.342 312.979 864.749 312.7C864.157 312.422 863.438 312.283 862.592 312.283C861.833 312.283 861.161 312.403 860.576 312.643C859.992 312.884 859.52 313.215 859.162 313.639C858.803 314.062 858.583 314.551 858.501 315.106L858.491 315.176L860.176 315.176L860.189 315.133C860.316 314.712 860.581 314.383 860.984 314.144C861.387 313.906 861.907 313.787 862.543 313.787C863.312 313.787 863.893 313.959 864.285 314.304C864.677 314.649 864.874 315.143 864.874 315.786L864.874 319.001C864.874 319.499 864.746 319.946 864.49 320.341C864.235 320.737 863.885 321.049 863.441 321.279C862.997 321.509 862.491 321.623 861.922 321.623C861.31 321.623 860.807 321.476 860.412 321.182C860.016 320.889 859.819 320.48 859.819 319.957L859.819 319.937C859.819 319.427 860.004 319.029 860.373 318.743C860.742 318.456 861.313 318.291 862.084 318.247L865.723 318.017L865.723 316.669L861.882 316.899C860.671 316.969 859.735 317.268 859.073 317.795C858.412 318.323 858.081 319.047 858.081 319.967L858.081 319.987C858.081 320.619 858.232 321.168 858.535 321.635C858.838 322.103 859.252 322.463 859.778 322.717C860.303 322.971 860.898 323.098 861.564 323.098Z"/>
<path d="M872.642 323.016C872.811 323.016 872.977 323.007 873.141 322.988C873.304 322.969 873.461 322.948 873.609 322.925L873.609 321.496C873.473 321.508 873.353 321.517 873.249 321.524C873.144 321.532 873.023 321.535 872.884 321.535C872.358 321.535 871.978 321.409 871.744 321.158C871.51 320.906 871.393 320.48 871.393 319.88L871.393 313.877L873.609 313.877L873.609 312.471L871.393 312.471L871.393 309.741L869.635 309.741L869.635 312.471L868.016 312.471L868.016 313.877L869.635 313.877L869.635 320.21C869.635 321.205 869.875 321.922 870.354 322.359C870.834 322.797 871.596 323.016 872.642 323.016Z"/>
<path d="M878.392 323.098C878.862 323.098 879.297 323.029 879.697 322.891C880.096 322.753 880.455 322.552 880.773 322.287C881.091 322.023 881.358 321.705 881.573 321.334L881.701 321.334L881.701 322.91L883.401 322.91L883.401 315.747C883.401 315.03 883.245 314.413 882.933 313.895C882.622 313.377 882.17 312.979 881.577 312.7C880.984 312.422 880.265 312.283 879.42 312.283C878.66 312.283 877.988 312.403 877.404 312.643C876.82 312.884 876.348 313.215 875.989 313.639C875.631 314.062 875.41 314.551 875.329 315.106L875.319 315.176L877.004 315.176L877.016 315.133C877.144 314.712 877.409 314.383 877.812 314.144C878.215 313.906 878.734 313.787 879.37 313.787C880.14 313.787 880.721 313.959 881.113 314.304C881.505 314.649 881.701 315.143 881.701 315.786L881.701 319.001C881.701 319.499 881.573 319.946 881.318 320.341C881.062 320.737 880.713 321.049 880.269 321.279C879.825 321.509 879.319 321.623 878.75 321.623C878.138 321.623 877.634 321.476 877.239 321.182C876.844 320.889 876.647 320.48 876.647 319.957L876.647 319.937C876.647 319.427 876.831 319.029 877.201 318.743C877.57 318.456 878.14 318.291 878.912 318.247L882.551 318.017L882.551 316.669L878.709 316.899C877.499 316.969 876.563 317.268 875.901 317.795C875.239 318.323 874.908 319.047 874.908 319.967L874.908 319.987C874.908 320.619 875.06 321.168 875.363 321.635C875.666 322.103 876.08 322.463 876.605 322.717C877.131 322.971 877.726 323.098 878.392 323.098Z"/>
</g>
<g opacity="1">
<path d="M770 162.58C770 170.874 770 290 770 290L800 290" fill="none" stroke="#000000" stroke-linecap="butt" stroke-linejoin="round" stroke-width="2"/>
<g fill="#000000" stroke="none">
<path d="M776.774 168.28L770.774 160.947L770 160.001L769.226 160.947L763.226 168.28C762.876 168.707 762.939 169.337 763.367 169.687C763.794 170.037 764.424 169.974 764.774 169.546L770.774 162.213L769.226 162.213L775.226 169.546C775.576 169.974 776.206 170.037 776.633 169.687C777.061 169.337 777.124 168.707 776.774 168.28Z" fill="#000000"/>
</g>
</g>
<path d="M265 270L295 270C297.761 270 300 273.358 300 277.5L300 292.5C300 296.642 297.761 300 295 300L265 300C262.239 300 260 296.642 260 292.5L260 277.5C260 273.358 262.239 270 265 270Z" fill="#14b218" fill-rule="nonzero" opacity="1" stroke="#000000" stroke-linecap="butt" stroke-linejoin="round" stroke-width="3.5"/>
<path d="M325 270L355 270C357.761 270 360 272.239 360 275L360 295C360 297.761 357.761 300 355 300L325 300C322.239 300 320 297.761 320 295L320 275C320 272.239 322.239 270 325 270Z" fill="#14b218" fill-rule="nonzero" opacity="1" stroke="#000000" stroke-linecap="butt" stroke-linejoin="round" stroke-width="3.5"/>
<path d="M335 270L345 270C347.761 270 350 272.239 350 275L350 285C350 287.761 347.761 290 345 290L335 290C332.239 290 330 287.761 330 285L330 275C330 272.239 332.239 270 335 270Z" fill="#e3f501" fill-rule="nonzero" opacity="1" stroke="#000000" stroke-linecap="butt" stroke-linejoin="round" stroke-width="3.5"/>
<path d="M275 270L285 270C287.761 270 290 272.239 290 275L290 285C290 287.761 287.761 290 285 290L275 290C272.239 290 270 287.761 270 285L270 275C270 272.239 272.239 270 275 270Z" fill="#e3f501" fill-rule="nonzero" opacity="1" stroke="#000000" stroke-linecap="butt" stroke-linejoin="round" stroke-width="3.5"/>
<g opacity="1">
<path d="M560 312.582C560 316.194 560 350 560 350L620 350C620 350 620 316.194 620 312.582" fill="none" stroke="#000000" stroke-linecap="butt" stroke-linejoin="round" stroke-width="2"/>
<g fill="#000000" stroke="none">
<path d="M626.774 318.282L620.774 310.949L620 310.003L619.226 310.949L613.226 318.282C612.876 318.709 612.939 319.34 613.367 319.689C613.794 320.039 614.424 319.976 614.774 319.549L620.774 312.215L619.226 312.215L625.226 319.549C625.576 319.976 626.206 320.039 626.633 319.689C627.061 319.34 627.124 318.709 626.774 318.282Z" fill="#000000"/>
<path d="M566.774 318.282L560.774 310.949L560 310.003L559.226 310.949L553.226 318.282C552.876 318.709 552.939 319.34 553.367 319.689C553.794 320.039 554.424 319.976 554.774 319.549L560.774 312.215L559.226 312.215L565.226 319.549C565.576 319.976 566.206 320.039 566.633 319.689C567.061 319.34 567.124 318.709 566.774 318.282Z" fill="#000000"/>
</g>
</g>
<path d="M590 350L590 390L700 390" fill="none" opacity="1" stroke="#000000" stroke-linecap="butt" stroke-linejoin="round" stroke-width="2"/>
<g fill="#000000" opacity="1" stroke="none">
<path d="M711.673 389.043L713.372 389.043L713.372 374.481L711.673 374.481L711.673 389.043Z"/>
<path d="M715.956 392.536L717.656 392.536L717.656 387.374L717.784 387.374C717.984 387.754 718.248 388.083 718.575 388.358C718.902 388.634 719.278 388.848 719.702 389.001C720.126 389.154 720.578 389.231 721.058 389.231C721.941 389.231 722.711 389.008 723.367 388.563C724.023 388.117 724.533 387.491 724.897 386.683C725.261 385.876 725.442 384.925 725.442 383.833L725.442 383.816C725.442 382.728 725.261 381.78 724.898 380.972C724.535 380.163 724.025 379.535 723.367 379.087C722.709 378.639 721.937 378.416 721.052 378.416C720.565 378.416 720.114 378.491 719.699 378.642C719.284 378.794 718.914 379.008 718.591 379.287C718.268 379.565 717.999 379.9 717.784 380.292L717.656 380.292L717.656 378.603L715.956 378.603L715.956 392.536ZM720.675 387.727C720.052 387.727 719.512 387.568 719.056 387.251C718.599 386.933 718.246 386.483 717.997 385.9C717.748 385.317 717.623 384.628 717.623 383.833L717.623 383.816C717.623 383.014 717.747 382.323 717.996 381.743C718.244 381.162 718.597 380.713 719.054 380.396C719.512 380.078 720.052 379.919 720.675 379.919C721.309 379.919 721.851 380.076 722.302 380.388C722.753 380.701 723.1 381.148 723.341 381.728C723.583 382.309 723.704 383.005 723.704 383.816L723.704 383.833C723.704 384.636 723.583 385.329 723.341 385.912C723.1 386.495 722.753 386.943 722.302 387.257C721.851 387.57 721.309 387.727 720.675 387.727Z"/>
<path d="M733.508 389.352C734.725 389.352 735.78 389.111 736.674 388.629C737.567 388.148 738.26 387.469 738.753 386.594C739.246 385.719 739.492 384.689 739.492 383.504L739.492 381.875L733.775 381.875L733.775 383.418L737.734 383.418L737.734 383.739C737.734 384.532 737.558 385.228 737.206 385.827C736.853 386.426 736.36 386.893 735.725 387.228C735.09 387.563 734.354 387.731 733.515 387.731C732.568 387.731 731.75 387.498 731.061 387.034C730.372 386.569 729.84 385.906 729.465 385.044C729.09 384.182 728.902 383.162 728.902 381.983L728.902 381.966C728.902 380.802 729.091 379.794 729.467 378.941C729.844 378.087 730.377 377.428 731.066 376.962C731.755 376.496 732.569 376.263 733.508 376.263C734.542 376.263 735.406 376.505 736.098 376.989C736.79 377.474 737.283 378.169 737.579 379.076L737.611 379.176L739.404 379.176L739.378 379.057C739.188 378.179 738.83 377.409 738.305 376.748C737.78 376.086 737.112 375.57 736.301 375.199C735.49 374.828 734.559 374.642 733.508 374.642C732.219 374.642 731.094 374.944 730.132 375.548C729.17 376.152 728.426 377.003 727.897 378.099C727.369 379.196 727.105 380.485 727.105 381.966L727.105 381.983C727.105 383.481 727.368 384.782 727.894 385.887C728.419 386.993 729.162 387.846 730.121 388.449C731.08 389.051 732.209 389.352 733.508 389.352Z"/>
<path d="M742.824 389.043L747.402 389.043C748.404 389.043 749.26 388.885 749.97 388.569C750.68 388.254 751.225 387.801 751.606 387.212C751.987 386.623 752.177 385.917 752.177 385.095L752.177 385.076C752.177 384.456 752.048 383.903 751.79 383.416C751.532 382.929 751.167 382.532 750.693 382.225C750.22 381.917 749.657 381.724 749.005 381.646L749.005 381.518C749.468 381.436 749.885 381.248 750.254 380.953C750.623 380.657 750.917 380.293 751.136 379.86C751.355 379.428 751.464 378.967 751.464 378.479L751.464 378.459C751.464 377.746 751.296 377.127 750.96 376.602C750.624 376.078 750.147 375.671 749.529 375.383C748.911 375.095 748.176 374.951 747.324 374.951L742.824 374.951L742.824 376.504L746.946 376.504C747.814 376.504 748.488 376.698 748.967 377.085C749.447 377.473 749.687 378.023 749.687 378.734L749.687 378.754C749.687 379.501 749.417 380.066 748.877 380.45C748.336 380.834 747.536 381.025 746.474 381.025L742.824 381.025L742.824 382.539L746.972 382.539C747.721 382.539 748.347 382.63 748.852 382.812C749.356 382.995 749.736 383.268 749.99 383.633C750.243 383.997 750.37 384.451 750.37 384.993L750.37 385.012C750.37 385.819 750.097 386.434 749.549 386.857C749.001 387.279 748.198 387.49 747.138 387.49L742.824 387.49L742.824 389.043ZM741.945 389.043L743.703 389.043L743.703 374.951L741.945 374.951L741.945 389.043Z"/>
<path d="M758.03 389.043L759.788 389.043L759.788 376.533L764.306 376.533L764.306 374.951L753.512 374.951L753.512 376.533L758.03 376.533L758.03 389.043Z"/>
<path d="M770.958 389.043L772.657 389.043L772.657 382.556C772.657 382.066 772.762 381.622 772.971 381.224C773.18 380.825 773.467 380.508 773.83 380.273C774.193 380.037 774.602 379.919 775.056 379.919C775.712 379.919 776.237 380.106 776.629 380.48C777.022 380.853 777.218 381.352 777.218 381.975L777.218 389.043L778.917 389.043L778.917 382.349C778.917 381.897 779.017 381.488 779.218 381.121C779.418 380.755 779.698 380.463 780.058 380.246C780.418 380.028 780.838 379.919 781.317 379.919C782.042 379.919 782.586 380.114 782.949 380.503C783.312 380.892 783.493 381.464 783.493 382.22L783.493 389.043L785.192 389.043L785.192 381.83C785.192 381.108 785.061 380.493 784.797 379.985C784.534 379.477 784.153 379.089 783.656 378.819C783.159 378.55 782.557 378.416 781.852 378.416C781.372 378.416 780.922 378.492 780.504 378.646C780.086 378.8 779.717 379.017 779.399 379.296C779.081 379.576 778.827 379.906 778.638 380.287L778.51 380.287C778.352 379.91 778.136 379.581 777.863 379.302C777.589 379.022 777.264 378.804 776.887 378.649C776.51 378.493 776.086 378.416 775.614 378.416C774.933 378.416 774.349 378.571 773.864 378.883C773.378 379.195 773.019 379.626 772.786 380.177L772.657 380.177L772.657 378.603L770.958 378.603L770.958 389.043Z"/>
<path d="M791.864 389.231C792.467 389.231 793.015 389.152 793.508 388.994C794 388.836 794.43 388.621 794.796 388.349C795.162 388.078 795.461 387.771 795.694 387.428C795.927 387.086 796.088 386.729 796.178 386.357L796.197 386.275L794.505 386.275L794.468 386.362C794.375 386.591 794.215 386.809 793.987 387.017C793.759 387.225 793.471 387.394 793.123 387.524C792.774 387.654 792.368 387.719 791.903 387.719C791.271 387.719 790.723 387.579 790.259 387.299C789.795 387.019 789.437 386.617 789.186 386.091C788.934 385.566 788.808 384.933 788.808 384.192L788.808 383.523C788.808 382.743 788.937 382.085 789.194 381.55C789.452 381.015 789.801 380.611 790.243 380.337C790.685 380.064 791.187 379.927 791.747 379.927C792.307 379.927 792.803 380.057 793.235 380.318C793.666 380.578 794.005 380.973 794.25 381.502C794.495 382.032 794.617 382.705 794.617 383.523L794.617 384.192L795.462 382.954L787.946 382.954L787.946 384.305L796.324 384.305L796.324 383.65C796.324 382.609 796.141 381.696 795.776 380.91C795.41 380.125 794.886 379.513 794.204 379.074C793.522 378.635 792.706 378.416 791.757 378.416C790.812 378.416 789.988 378.645 789.285 379.103C788.581 379.561 788.037 380.198 787.652 381.013C787.267 381.828 787.074 382.774 787.074 383.852L787.074 383.862C787.074 384.953 787.267 385.901 787.651 386.705C788.035 387.51 788.585 388.132 789.3 388.571C790.014 389.011 790.869 389.231 791.864 389.231Z"/>
<path d="M801.903 389.231C802.693 389.231 803.401 389.098 804.026 388.834C804.652 388.569 805.147 388.2 805.511 387.727C805.875 387.254 806.057 386.709 806.057 386.092L806.057 386.074C806.057 385.327 805.823 384.73 805.354 384.285C804.885 383.84 804.151 383.496 803.152 383.253L801.534 382.863C800.929 382.716 800.491 382.525 800.218 382.289C799.946 382.053 799.81 381.757 799.81 381.402L799.81 381.385C799.81 381.076 799.901 380.805 800.083 380.573C800.265 380.341 800.515 380.159 800.835 380.028C801.154 379.897 801.521 379.832 801.936 379.832C802.573 379.832 803.086 379.966 803.476 380.236C803.867 380.506 804.112 380.858 804.212 381.293L804.214 381.309L805.872 381.309L805.87 381.279C805.801 380.708 805.596 380.207 805.256 379.777C804.915 379.347 804.462 379.013 803.897 378.774C803.332 378.535 802.681 378.416 801.944 378.416C801.205 378.416 800.543 378.547 799.957 378.811C799.371 379.075 798.911 379.437 798.575 379.896C798.24 380.355 798.072 380.878 798.072 381.463L798.072 381.473C798.072 382.222 798.304 382.824 798.767 383.278C799.231 383.732 799.951 384.075 800.928 384.308L802.555 384.699C803.189 384.852 803.641 385.05 803.912 385.294C804.183 385.538 804.319 385.839 804.319 386.199L804.319 386.216C804.319 386.532 804.219 386.81 804.018 387.049C803.817 387.289 803.541 387.476 803.188 387.612C802.835 387.747 802.422 387.815 801.95 387.815C801.275 387.815 800.733 387.679 800.324 387.409C799.915 387.138 799.644 386.776 799.51 386.323L799.505 386.3L797.776 386.3L797.778 386.32C797.845 386.906 798.056 387.417 798.411 387.853C798.766 388.288 799.241 388.627 799.835 388.869C800.43 389.11 801.119 389.231 801.903 389.231Z"/>
<path d="M811.499 389.231C812.289 389.231 812.997 389.098 813.622 388.834C814.248 388.569 814.743 388.2 815.107 387.727C815.471 387.254 815.653 386.709 815.653 386.092L815.653 386.074C815.653 385.327 815.419 384.73 814.95 384.285C814.481 383.84 813.747 383.496 812.748 383.253L811.129 382.863C810.525 382.716 810.086 382.525 809.814 382.289C809.542 382.053 809.406 381.757 809.406 381.402L809.406 381.385C809.406 381.076 809.497 380.805 809.679 380.573C809.86 380.341 810.111 380.159 810.43 380.028C810.75 379.897 811.117 379.832 811.532 379.832C812.169 379.832 812.682 379.966 813.072 380.236C813.462 380.506 813.707 380.858 813.807 381.293L813.81 381.309L815.468 381.309L815.466 381.279C815.397 380.708 815.192 380.207 814.851 379.777C814.511 379.347 814.058 379.013 813.493 378.774C812.928 378.535 812.277 378.416 811.54 378.416C810.801 378.416 810.138 378.547 809.553 378.811C808.967 379.075 808.507 379.437 808.171 379.896C807.835 380.355 807.667 380.878 807.667 381.463L807.667 381.473C807.667 382.222 807.899 382.824 808.363 383.278C808.827 383.732 809.547 384.075 810.524 384.308L812.15 384.699C812.785 384.852 813.237 385.05 813.508 385.294C813.779 385.538 813.915 385.839 813.915 386.199L813.915 386.216C813.915 386.532 813.814 386.81 813.614 387.049C813.413 387.289 813.136 387.476 812.784 387.612C812.431 387.747 812.018 387.815 811.546 387.815C810.871 387.815 810.329 387.679 809.92 387.409C809.511 387.138 809.239 386.776 809.105 386.323L809.101 386.3L807.372 386.3L807.374 386.32C807.441 386.906 807.651 387.417 808.007 387.853C808.362 388.288 808.837 388.627 809.431 388.869C810.025 389.11 810.715 389.231 811.499 389.231Z"/>
<path d="M820.542 389.231C821.013 389.231 821.448 389.162 821.847 389.024C822.247 388.886 822.605 388.684 822.923 388.42C823.241 388.156 823.508 387.838 823.723 387.467L823.852 387.467L823.852 389.043L825.551 389.043L825.551 381.88C825.551 381.163 825.395 380.545 825.084 380.028C824.772 379.51 824.32 379.111 823.727 378.833C823.135 378.555 822.416 378.416 821.57 378.416C820.811 378.416 820.139 378.536 819.554 378.776C818.97 379.016 818.498 379.348 818.14 379.772C817.781 380.195 817.561 380.684 817.479 381.239L817.469 381.309L819.155 381.309L819.167 381.266C819.294 380.845 819.559 380.516 819.962 380.277C820.365 380.039 820.885 379.919 821.521 379.919C822.29 379.919 822.871 380.092 823.263 380.437C823.656 380.782 823.852 381.276 823.852 381.919L823.852 385.133C823.852 385.632 823.724 386.079 823.468 386.474C823.213 386.87 822.863 387.182 822.419 387.412C821.975 387.641 821.469 387.756 820.9 387.756C820.288 387.756 819.785 387.609 819.39 387.315C818.995 387.021 818.797 386.613 818.797 386.09L818.797 386.07C818.797 385.56 818.982 385.162 819.351 384.875C819.72 384.589 820.291 384.424 821.062 384.38L824.701 384.15L824.701 382.802L820.86 383.032C819.65 383.102 818.713 383.4 818.052 383.928C817.39 384.455 817.059 385.18 817.059 386.1L817.059 386.12C817.059 386.752 817.21 387.301 817.513 387.768C817.816 388.235 818.231 388.596 818.756 388.85C819.281 389.104 819.876 389.231 820.542 389.231Z"/>
<path d="M832.31 392.731C833.258 392.731 834.08 392.572 834.775 392.255C835.47 391.938 836.007 391.489 836.384 390.909C836.761 390.328 836.949 389.647 836.949 388.864L836.949 378.603L835.25 378.603L835.25 380.337L835.151 380.337C834.938 379.944 834.671 379.605 834.35 379.319C834.029 379.032 833.662 378.81 833.249 378.652C832.835 378.494 832.382 378.416 831.891 378.416C830.987 378.416 830.204 378.634 829.543 379.071C828.882 379.508 828.37 380.111 828.007 380.879C827.644 381.647 827.463 382.531 827.463 383.531L827.463 383.548C827.463 384.548 827.642 385.432 828.001 386.199C828.36 386.966 828.868 387.566 829.526 387.999C830.184 388.432 830.959 388.648 831.852 388.648C832.335 388.648 832.785 388.577 833.2 388.434C833.616 388.291 833.989 388.083 834.318 387.809C834.647 387.536 834.919 387.208 835.136 386.825L835.265 386.825L835.265 388.758C835.265 389.536 835.005 390.142 834.484 390.576C833.963 391.01 833.237 391.227 832.305 391.227C831.566 391.227 830.967 391.104 830.509 390.857C830.051 390.611 829.768 390.293 829.66 389.904L829.643 389.875L827.897 389.875L827.886 389.904C827.982 390.46 828.218 390.951 828.594 391.378C828.97 391.805 829.472 392.137 830.101 392.374C830.731 392.612 831.467 392.731 832.31 392.731ZM832.223 387.144C831.584 387.144 831.04 386.993 830.589 386.69C830.139 386.388 829.795 385.967 829.558 385.427C829.32 384.888 829.201 384.262 829.201 383.548L829.201 383.531C829.201 382.821 829.32 382.194 829.558 381.65C829.795 381.107 830.139 380.682 830.589 380.377C831.04 380.072 831.584 379.919 832.223 379.919C832.855 379.919 833.401 380.072 833.859 380.378C834.318 380.684 834.672 381.109 834.921 381.653C835.17 382.196 835.295 382.822 835.295 383.531L835.295 383.548C835.295 384.257 835.17 384.882 834.921 385.422C834.672 385.962 834.318 386.384 833.861 386.688C833.403 386.992 832.857 387.144 832.223 387.144Z"/>
<path d="M843.705 389.231C844.308 389.231 844.856 389.152 845.348 388.994C845.841 388.836 846.27 388.621 846.637 388.349C847.003 388.078 847.302 387.771 847.535 387.428C847.767 387.086 847.928 386.729 848.018 386.357L848.038 386.275L846.345 386.275L846.309 386.362C846.216 386.591 846.056 386.809 845.828 387.017C845.6 387.225 845.312 387.394 844.963 387.524C844.615 387.654 844.208 387.719 843.744 387.719C843.112 387.719 842.564 387.579 842.1 387.299C841.636 387.019 841.278 386.617 841.026 386.091C840.775 385.566 840.649 384.933 840.649 384.192L840.649 383.523C840.649 382.743 840.777 382.085 841.035 381.55C841.292 381.015 841.642 380.611 842.084 380.337C842.526 380.064 843.027 379.927 843.587 379.927C844.148 379.927 844.644 380.057 845.075 380.318C845.507 380.578 845.845 380.973 846.09 381.502C846.335 382.032 846.458 382.705 846.458 383.523L846.458 384.192L847.302 382.954L839.787 382.954L839.787 384.305L848.165 384.305L848.165 383.65C848.165 382.609 847.982 381.696 847.616 380.91C847.251 380.125 846.727 379.513 846.045 379.074C845.362 378.635 844.547 378.416 843.597 378.416C842.653 378.416 841.829 378.645 841.125 379.103C840.422 379.561 839.878 380.198 839.493 381.013C839.108 381.828 838.915 382.774 838.915 383.852L838.915 383.862C838.915 384.953 839.107 385.901 839.492 386.705C839.876 387.51 840.425 388.132 841.14 388.571C841.855 389.011 842.71 389.231 843.705 389.231Z"/>
<path d="M853.744 389.231C854.534 389.231 855.242 389.098 855.867 388.834C856.493 388.569 856.987 388.2 857.352 387.727C857.716 387.254 857.898 386.709 857.898 386.092L857.898 386.074C857.898 385.327 857.663 384.73 857.195 384.285C856.726 383.84 855.992 383.496 854.993 383.253L853.374 382.863C852.77 382.716 852.331 382.525 852.059 382.289C851.787 382.053 851.651 381.757 851.651 381.402L851.651 381.385C851.651 381.076 851.742 380.805 851.923 380.573C852.105 380.341 852.356 380.159 852.675 380.028C852.995 379.897 853.362 379.832 853.777 379.832C854.413 379.832 854.927 379.966 855.317 380.236C855.707 380.506 855.952 380.858 856.052 381.293L856.054 381.309L857.713 381.309L857.711 381.279C857.642 380.708 857.437 380.207 857.096 379.777C856.756 379.347 856.303 379.013 855.738 378.774C855.173 378.535 854.522 378.416 853.784 378.416C853.045 378.416 852.383 378.547 851.798 378.811C851.212 379.075 850.751 379.437 850.416 379.896C850.08 380.355 849.912 380.878 849.912 381.463L849.912 381.473C849.912 382.222 850.144 382.824 850.608 383.278C851.072 383.732 851.792 384.075 852.769 384.308L854.395 384.699C855.029 384.852 855.482 385.05 855.753 385.294C856.024 385.538 856.16 385.839 856.16 386.199L856.16 386.216C856.16 386.532 856.059 386.81 855.859 387.049C855.658 387.289 855.381 387.476 855.028 387.612C854.676 387.747 854.263 387.815 853.791 387.815C853.116 387.815 852.574 387.679 852.165 387.409C851.756 387.138 851.484 386.776 851.35 386.323L851.346 386.3L849.616 386.3L849.619 386.32C849.685 386.906 849.896 387.417 850.251 387.853C850.607 388.288 851.081 388.627 851.676 388.869C852.27 389.11 852.959 389.231 853.744 389.231Z"/>
<path d="M866.72 389.043L868.426 389.043L870.756 380.965L870.885 380.965L873.224 389.043L874.938 389.043L877.859 378.603L876.172 378.603L874.111 386.984L873.983 386.984L871.641 378.603L870.022 378.603L867.683 386.984L867.554 386.984L865.493 378.603L863.796 378.603L866.72 389.043Z"/>
<path d="M879.508 389.043L881.208 389.043L881.208 378.603L879.508 378.603L879.508 389.043ZM880.366 376.646C880.685 376.646 880.956 376.533 881.178 376.307C881.401 376.082 881.512 375.812 881.512 375.499C881.512 375.18 881.401 374.909 881.178 374.687C880.956 374.464 880.685 374.353 880.366 374.353C880.053 374.353 879.783 374.464 879.558 374.687C879.332 374.909 879.219 375.18 879.219 375.499C879.219 375.812 879.332 376.082 879.558 376.307C879.783 376.533 880.053 376.646 880.366 376.646Z"/>
<path d="M887.388 389.149C887.557 389.149 887.724 389.139 887.887 389.121C888.051 389.102 888.207 389.081 888.356 389.058L888.356 387.629C888.22 387.64 888.099 387.65 887.995 387.657C887.891 387.664 887.769 387.668 887.63 387.668C887.105 387.668 886.725 387.542 886.49 387.29C886.256 387.039 886.139 386.613 886.139 386.013L886.139 380.01L888.356 380.01L888.356 378.603L886.139 378.603L886.139 375.874L884.381 375.874L884.381 378.603L882.762 378.603L882.762 380.01L884.381 380.01L884.381 386.343C884.381 387.338 884.621 388.054 885.1 388.492C885.58 388.93 886.343 389.149 887.388 389.149Z"/>
<path d="M890.37 389.043L892.069 389.043L892.069 382.884C892.069 382.275 892.181 381.75 892.404 381.308C892.627 380.867 892.942 380.525 893.348 380.283C893.754 380.041 894.233 379.919 894.784 379.919C895.613 379.919 896.232 380.155 896.643 380.628C897.053 381.1 897.258 381.807 897.258 382.75L897.258 389.043L898.958 389.043L898.958 382.367C898.958 381.537 898.812 380.828 898.521 380.239C898.23 379.65 897.811 379.199 897.265 378.886C896.719 378.572 896.06 378.416 895.288 378.416C894.517 378.416 893.877 378.571 893.366 378.883C892.856 379.194 892.466 379.632 892.198 380.195L892.069 380.195L892.069 374.481L890.37 374.481L890.37 389.043Z"/>
<path d="M718.655 413.098C719.258 413.098 719.806 413.019 720.299 412.861C720.791 412.703 721.221 412.488 721.587 412.216C721.953 411.945 722.253 411.638 722.485 411.296C722.718 410.953 722.879 410.596 722.969 410.224L722.988 410.142L721.296 410.142L721.259 410.23C721.166 410.458 721.006 410.676 720.778 410.884C720.55 411.092 720.262 411.261 719.914 411.391C719.565 411.522 719.159 411.587 718.694 411.587C718.062 411.587 717.514 411.447 717.05 411.166C716.586 410.886 716.228 410.484 715.977 409.958C715.725 409.433 715.599 408.8 715.599 408.059L715.599 407.39C715.599 406.61 715.728 405.952 715.985 405.417C716.243 404.882 716.592 404.478 717.034 404.204C717.477 403.931 717.978 403.794 718.538 403.794C719.098 403.794 719.594 403.924 720.026 404.185C720.457 404.445 720.796 404.84 721.041 405.37C721.286 405.899 721.408 406.572 721.408 407.39L721.408 408.059L722.253 406.821L714.738 406.821L714.738 408.172L723.115 408.172L723.115 407.517C723.115 406.476 722.932 405.563 722.567 404.778C722.201 403.992 721.677 403.38 720.995 402.941C720.313 402.502 719.497 402.283 718.548 402.283C717.603 402.283 716.779 402.512 716.076 402.97C715.372 403.429 714.828 404.065 714.443 404.88C714.058 405.695 713.865 406.642 713.865 407.72L713.865 407.729C713.865 408.82 714.058 409.768 714.442 410.573C714.826 411.377 715.376 411.999 716.091 412.439C716.805 412.878 717.66 413.098 718.655 413.098Z"/>
<path d="M725.083 412.91L726.782 412.91L726.782 406.424C726.782 405.933 726.887 405.489 727.096 405.091C727.306 404.692 727.592 404.375 727.955 404.14C728.318 403.904 728.727 403.787 729.181 403.787C729.838 403.787 730.362 403.973 730.755 404.347C731.147 404.72 731.343 405.219 731.343 405.842L731.343 412.91L733.043 412.91L733.043 406.216C733.043 405.764 733.143 405.355 733.343 404.989C733.543 404.622 733.823 404.33 734.183 404.113C734.543 403.895 734.963 403.787 735.442 403.787C736.167 403.787 736.711 403.981 737.074 404.37C737.437 404.759 737.618 405.331 737.618 406.088L737.618 412.91L739.318 412.91L739.318 405.697C739.318 404.975 739.186 404.36 738.922 403.852C738.659 403.344 738.279 402.956 737.781 402.687C737.284 402.417 736.683 402.283 735.977 402.283C735.497 402.283 735.048 402.36 734.629 402.513C734.211 402.667 733.843 402.884 733.524 403.164C733.206 403.443 732.953 403.773 732.764 404.154L732.635 404.154C732.477 403.777 732.261 403.449 731.988 403.169C731.714 402.889 731.389 402.671 731.012 402.516C730.636 402.36 730.211 402.283 729.739 402.283C729.058 402.283 728.475 402.439 727.989 402.75C727.503 403.062 727.144 403.493 726.911 404.044L726.782 404.044L726.782 402.471L725.083 402.471L725.083 412.91Z"/>
<path d="M746.911 413.098C747.797 413.098 748.568 412.875 749.226 412.43C749.884 411.985 750.394 411.356 750.757 410.546C751.12 409.735 751.302 408.785 751.302 407.698L751.302 407.681C751.302 406.588 751.12 405.638 750.756 404.83C750.392 404.023 749.882 403.396 749.226 402.951C748.57 402.505 747.8 402.283 746.918 402.283C746.197 402.283 745.544 402.451 744.96 402.787C744.376 403.123 743.937 403.574 743.643 404.14L743.515 404.14L743.515 398.349L741.816 398.349L741.816 412.91L743.515 412.91L743.515 411.221L743.643 411.221C743.967 411.809 744.411 412.268 744.973 412.6C745.536 412.932 746.182 413.098 746.911 413.098ZM746.534 411.594C745.911 411.594 745.371 411.435 744.914 411.118C744.456 410.8 744.103 410.35 743.855 409.766C743.607 409.182 743.483 408.493 743.483 407.698L743.483 407.681C743.483 406.881 743.607 406.19 743.856 405.61C744.105 405.029 744.458 404.58 744.915 404.263C745.372 403.945 745.911 403.787 746.534 403.787C747.168 403.787 747.71 403.943 748.161 404.257C748.612 404.57 748.959 405.017 749.201 405.597C749.442 406.176 749.563 406.871 749.563 407.681L749.563 407.698C749.563 408.502 749.442 409.196 749.201 409.78C748.959 410.364 748.612 410.812 748.161 411.125C747.71 411.438 747.168 411.594 746.534 411.594Z"/>
<path d="M757.539 413.098C758.142 413.098 758.69 413.019 759.183 412.861C759.675 412.703 760.105 412.488 760.471 412.216C760.837 411.945 761.137 411.638 761.369 411.296C761.602 410.953 761.763 410.596 761.853 410.224L761.872 410.142L760.18 410.142L760.143 410.23C760.05 410.458 759.89 410.676 759.662 410.884C759.434 411.092 759.146 411.261 758.798 411.391C758.449 411.522 758.043 411.587 757.578 411.587C756.946 411.587 756.398 411.447 755.934 411.166C755.47 410.886 755.112 410.484 754.861 409.958C754.609 409.433 754.483 408.8 754.483 408.059L754.483 407.39C754.483 406.61 754.612 405.952 754.869 405.417C755.127 404.882 755.476 404.478 755.918 404.204C756.361 403.931 756.862 403.794 757.422 403.794C757.982 403.794 758.478 403.924 758.91 404.185C759.341 404.445 759.68 404.84 759.925 405.37C760.17 405.899 760.292 406.572 760.292 407.39L760.292 408.059L761.137 406.821L753.622 406.821L753.622 408.172L761.999 408.172L761.999 407.517C761.999 406.476 761.816 405.563 761.451 404.778C761.085 403.992 760.561 403.38 759.879 402.941C759.197 402.502 758.381 402.283 757.432 402.283C756.487 402.283 755.663 402.512 754.96 402.97C754.256 403.429 753.712 404.065 753.327 404.88C752.942 405.695 752.749 406.642 752.749 407.72L752.749 407.729C752.749 408.82 752.942 409.768 753.326 410.573C753.71 411.377 754.26 411.999 754.975 412.439C755.689 412.878 756.544 413.098 757.539 413.098Z"/>
<path d="M767.838 413.098C768.572 413.098 769.22 412.932 769.783 412.6C770.345 412.268 770.786 411.809 771.105 411.221L771.234 411.221L771.234 412.91L772.933 412.91L772.933 398.349L771.234 398.349L771.234 404.14L771.105 404.14C770.811 403.574 770.372 403.123 769.788 402.787C769.205 402.451 768.552 402.283 767.831 402.283C766.95 402.283 766.181 402.505 765.524 402.951C764.867 403.396 764.356 404.023 763.993 404.83C763.629 405.638 763.447 406.588 763.447 407.681L763.447 407.698C763.447 408.785 763.628 409.735 763.991 410.546C764.354 411.356 764.866 411.985 765.526 412.43C766.186 412.875 766.957 413.098 767.838 413.098ZM768.215 411.594C767.586 411.594 767.045 411.438 766.591 411.125C766.137 410.812 765.79 410.364 765.548 409.78C765.306 409.196 765.185 408.502 765.185 407.698L765.185 407.681C765.185 406.871 765.306 406.176 765.548 405.597C765.79 405.017 766.137 404.57 766.591 404.257C767.045 403.943 767.586 403.787 768.215 403.787C768.837 403.787 769.377 403.945 769.834 404.263C770.291 404.58 770.644 405.029 770.892 405.61C771.141 406.19 771.266 406.881 771.266 407.681L771.266 407.698C771.266 408.493 771.142 409.182 770.894 409.766C770.645 410.35 770.293 410.8 769.835 411.118C769.377 411.435 768.837 411.594 768.215 411.594Z"/>
<path d="M779.388 413.098C780.122 413.098 780.77 412.932 781.333 412.6C781.895 412.268 782.336 411.809 782.655 411.221L782.784 411.221L782.784 412.91L784.483 412.91L784.483 398.349L782.784 398.349L782.784 404.14L782.655 404.14C782.361 403.574 781.922 403.123 781.338 402.787C780.754 402.451 780.102 402.283 779.381 402.283C778.5 402.283 777.73 402.505 777.074 402.951C776.417 403.396 775.906 404.023 775.542 404.83C775.178 405.638 774.997 406.588 774.997 407.681L774.997 407.698C774.997 408.785 775.178 409.735 775.541 410.546C775.904 411.356 776.416 411.985 777.076 412.43C777.736 412.875 778.507 413.098 779.388 413.098ZM779.764 411.594C779.136 411.594 778.594 411.438 778.141 411.125C777.687 410.812 777.339 410.364 777.098 409.78C776.856 409.196 776.735 408.502 776.735 407.698L776.735 407.681C776.735 406.871 776.856 406.176 777.098 405.597C777.339 405.017 777.687 404.57 778.141 404.257C778.594 403.943 779.136 403.787 779.764 403.787C780.387 403.787 780.927 403.945 781.384 404.263C781.84 404.58 782.193 405.029 782.442 405.61C782.691 406.19 782.816 406.881 782.816 407.681L782.816 407.698C782.816 408.493 782.692 409.182 782.443 409.766C782.195 410.35 781.842 410.8 781.385 411.118C780.927 411.435 780.387 411.594 779.764 411.594Z"/>
<path d="M791.336 413.098C791.939 413.098 792.487 413.019 792.98 412.861C793.472 412.703 793.902 412.488 794.268 412.216C794.634 411.945 794.933 411.638 795.166 411.296C795.399 410.953 795.56 410.596 795.649 410.224L795.669 410.142L793.977 410.142L793.94 410.23C793.847 410.458 793.687 410.676 793.459 410.884C793.231 411.092 792.943 411.261 792.595 411.391C792.246 411.522 791.84 411.587 791.375 411.587C790.743 411.587 790.195 411.447 789.731 411.166C789.267 410.886 788.909 410.484 788.657 409.958C788.406 409.433 788.28 408.8 788.28 408.059L788.28 407.39C788.28 406.61 788.409 405.952 788.666 405.417C788.923 404.882 789.273 404.478 789.715 404.204C790.157 403.931 790.659 403.794 791.219 403.794C791.779 403.794 792.275 403.924 792.707 404.185C793.138 404.445 793.476 404.84 793.722 405.37C793.967 405.899 794.089 406.572 794.089 407.39L794.089 408.059L794.934 406.821L787.418 406.821L787.418 408.172L795.796 408.172L795.796 407.517C795.796 406.476 795.613 405.563 795.248 404.778C794.882 403.992 794.358 403.38 793.676 402.941C792.994 402.502 792.178 402.283 791.228 402.283C790.284 402.283 789.46 402.512 788.757 402.97C788.053 403.429 787.509 404.065 787.124 404.88C786.739 405.695 786.546 406.642 786.546 407.72L786.546 407.729C786.546 408.82 786.738 409.768 787.123 410.573C787.507 411.377 788.057 411.999 788.771 412.439C789.486 412.878 790.341 413.098 791.336 413.098Z"/>
<path d="M801.635 413.098C802.369 413.098 803.017 412.932 803.58 412.6C804.142 412.268 804.583 411.809 804.902 411.221L805.031 411.221L805.031 412.91L806.73 412.91L806.73 398.349L805.031 398.349L805.031 404.14L804.902 404.14C804.608 403.574 804.169 403.123 803.585 402.787C803.001 402.451 802.349 402.283 801.628 402.283C800.747 402.283 799.978 402.505 799.321 402.951C798.664 403.396 798.153 404.023 797.789 404.83C797.426 405.638 797.244 406.588 797.244 407.681L797.244 407.698C797.244 408.785 797.425 409.735 797.788 410.546C798.151 411.356 798.663 411.985 799.323 412.43C799.983 412.875 800.754 413.098 801.635 413.098ZM802.011 411.594C801.383 411.594 800.841 411.438 800.388 411.125C799.934 410.812 799.587 410.364 799.345 409.78C799.103 409.196 798.982 408.502 798.982 407.698L798.982 407.681C798.982 406.871 799.103 406.176 799.345 405.597C799.587 405.017 799.934 404.57 800.388 404.257C800.841 403.943 801.383 403.787 802.011 403.787C802.634 403.787 803.174 403.945 803.631 404.263C804.087 404.58 804.44 405.029 804.689 405.61C804.938 406.19 805.063 406.881 805.063 407.681L805.063 407.698C805.063 408.493 804.939 409.182 804.69 409.766C804.442 410.35 804.089 410.8 803.632 411.118C803.174 411.435 802.634 411.594 802.011 411.594Z"/>
<path d="M814.356 412.91L816.114 412.91L816.114 407.334L819.458 407.334C819.472 407.334 819.489 407.334 819.507 407.334C819.526 407.334 819.543 407.334 819.557 407.334L822.575 412.91L824.636 412.91L821.374 407.061C822.258 406.781 822.951 406.283 823.453 405.568C823.955 404.852 824.206 404.006 824.206 403.03L824.206 403.01C824.206 402.164 824.02 401.428 823.649 400.802C823.278 400.176 822.756 399.689 822.082 399.341C821.408 398.993 820.619 398.818 819.714 398.818L814.356 398.818L814.356 412.91ZM816.114 405.774L816.114 400.381L819.479 400.381C820.389 400.381 821.102 400.618 821.617 401.093C822.132 401.567 822.389 402.224 822.389 403.064L822.389 403.084C822.389 403.945 822.144 404.608 821.652 405.074C821.161 405.541 820.462 405.774 819.557 405.774L816.114 405.774Z"/>
<path d="M832.644 413.219C833.984 413.219 835.137 412.918 836.104 412.316C837.071 411.713 837.814 410.862 838.334 409.762C838.854 408.663 839.114 407.365 839.114 405.869L839.114 405.85C839.114 404.349 838.852 403.049 838.33 401.95C837.808 400.851 837.063 400.003 836.095 399.406C835.128 398.808 833.977 398.509 832.644 398.509C831.316 398.509 830.168 398.808 829.2 399.406C828.231 400.003 827.484 400.85 826.959 401.946C826.433 403.043 826.17 404.344 826.17 405.85L826.17 405.869C826.17 407.365 826.43 408.664 826.95 409.766C827.47 410.868 828.213 411.719 829.179 412.319C830.144 412.919 831.3 413.219 832.644 413.219ZM832.644 411.598C831.671 411.598 830.835 411.362 830.137 410.89C829.439 410.418 828.902 409.752 828.528 408.893C828.154 408.035 827.967 407.026 827.967 405.869L827.967 405.85C827.967 404.681 828.158 403.669 828.539 402.813C828.921 401.958 829.461 401.297 830.16 400.83C830.859 400.364 831.687 400.13 832.644 400.13C833.606 400.13 834.436 400.364 835.134 400.83C835.833 401.297 836.371 401.958 836.749 402.814C837.128 403.671 837.317 404.682 837.317 405.85L837.317 405.869C837.317 407.025 837.128 408.032 836.75 408.891C836.373 409.75 835.835 410.416 835.138 410.889C834.44 411.362 833.609 411.598 832.644 411.598Z"/>
<path d="M847.233 413.219C848.231 413.219 849.129 413.042 849.927 412.687C850.726 412.332 851.387 411.834 851.911 411.191C852.435 410.549 852.777 409.793 852.938 408.925L852.942 408.887L851.165 408.887L851.143 408.923C850.986 409.481 850.724 409.961 850.358 410.361C849.992 410.761 849.544 411.067 849.014 411.28C848.484 411.492 847.89 411.598 847.233 411.598C846.322 411.598 845.532 411.364 844.862 410.895C844.193 410.426 843.677 409.763 843.313 408.906C842.95 408.049 842.768 407.038 842.768 405.874L842.768 405.857C842.768 404.686 842.95 403.673 843.313 402.818C843.677 401.962 844.193 401.3 844.861 400.832C845.53 400.364 846.318 400.13 847.225 400.13C847.879 400.13 848.471 400.248 848.999 400.483C849.527 400.717 849.976 401.05 850.345 401.48C850.713 401.91 850.979 402.424 851.141 403.022L851.165 403.088L852.935 403.088L852.938 403.05C852.792 402.153 852.454 401.364 851.924 400.682C851.395 400.001 850.726 399.468 849.917 399.085C849.109 398.701 848.212 398.509 847.225 398.509C845.942 398.509 844.832 398.808 843.895 399.407C842.959 400.005 842.236 400.853 841.726 401.95C841.216 403.047 840.961 404.349 840.961 405.857L840.961 405.874C840.961 407.377 841.216 408.677 841.726 409.775C842.236 410.873 842.961 411.722 843.9 412.321C844.84 412.92 845.951 413.219 847.233 413.219Z"/>
<path d="M863.695 413.098C864.429 413.098 865.077 412.932 865.64 412.6C866.202 412.268 866.643 411.809 866.962 411.221L867.091 411.221L867.091 412.91L868.79 412.91L868.79 398.349L867.091 398.349L867.091 404.14L866.962 404.14C866.668 403.574 866.229 403.123 865.645 402.787C865.061 402.451 864.409 402.283 863.688 402.283C862.807 402.283 862.037 402.505 861.38 402.951C860.723 403.396 860.213 404.023 859.849 404.83C859.485 405.638 859.304 406.588 859.304 407.681L859.304 407.698C859.304 408.785 859.485 409.735 859.848 410.546C860.211 411.356 860.723 411.985 861.383 412.43C862.043 412.875 862.814 413.098 863.695 413.098ZM864.071 411.594C863.443 411.594 862.901 411.438 862.448 411.125C861.994 410.812 861.646 410.364 861.405 409.78C861.163 409.196 861.042 408.502 861.042 407.698L861.042 407.681C861.042 406.871 861.163 406.176 861.405 405.597C861.646 405.017 861.994 404.57 862.448 404.257C862.901 403.943 863.443 403.787 864.071 403.787C864.694 403.787 865.234 403.945 865.691 404.263C866.147 404.58 866.5 405.029 866.749 405.61C866.998 406.19 867.123 406.881 867.123 407.681L867.123 407.698C867.123 408.493 866.999 409.182 866.75 409.766C866.502 410.35 866.149 410.8 865.692 411.118C865.234 411.435 864.694 411.594 864.071 411.594Z"/>
<path d="M874.283 413.098C874.754 413.098 875.189 413.029 875.588 412.891C875.987 412.753 876.346 412.552 876.664 412.287C876.982 412.023 877.249 411.705 877.464 411.334L877.593 411.334L877.593 412.91L879.292 412.91L879.292 405.747C879.292 405.03 879.136 404.413 878.825 403.895C878.513 403.377 878.061 402.979 877.468 402.7C876.876 402.422 876.157 402.283 875.311 402.283C874.552 402.283 873.88 402.403 873.295 402.643C872.711 402.884 872.239 403.215 871.881 403.639C871.522 404.062 871.302 404.551 871.22 405.106L871.21 405.176L872.896 405.176L872.908 405.133C873.035 404.712 873.3 404.383 873.703 404.144C874.106 403.906 874.626 403.787 875.262 403.787C876.031 403.787 876.612 403.959 877.004 404.304C877.396 404.649 877.593 405.143 877.593 405.786L877.593 409.001C877.593 409.499 877.465 409.946 877.209 410.341C876.954 410.737 876.604 411.049 876.16 411.279C875.716 411.509 875.21 411.623 874.641 411.623C874.029 411.623 873.526 411.476 873.131 411.182C872.735 410.889 872.538 410.48 872.538 409.957L872.538 409.937C872.538 409.427 872.723 409.029 873.092 408.743C873.461 408.456 874.032 408.291 874.803 408.247L878.442 408.017L878.442 406.669L874.601 406.899C873.39 406.969 872.454 407.268 871.792 407.795C871.131 408.323 870.8 409.047 870.8 409.967L870.8 409.987C870.8 410.619 870.951 411.168 871.254 411.635C871.557 412.103 871.971 412.463 872.497 412.717C873.022 412.971 873.617 413.098 874.283 413.098Z"/>
<path d="M885.361 413.016C885.53 413.016 885.696 413.007 885.86 412.988C886.023 412.969 886.18 412.948 886.328 412.925L886.328 411.496C886.192 411.508 886.072 411.517 885.968 411.524C885.863 411.532 885.742 411.535 885.603 411.535C885.077 411.535 884.697 411.409 884.463 411.158C884.229 410.906 884.112 410.48 884.112 409.88L884.112 403.877L886.328 403.877L886.328 402.471L884.112 402.471L884.112 399.741L882.354 399.741L882.354 402.471L880.735 402.471L880.735 403.877L882.354 403.877L882.354 410.21C882.354 411.205 882.594 411.922 883.073 412.359C883.553 412.797 884.315 413.016 885.361 413.016Z"/>
<path d="M891.111 413.098C891.581 413.098 892.016 413.029 892.416 412.891C892.815 412.753 893.174 412.552 893.492 412.287C893.81 412.023 894.077 411.705 894.292 411.334L894.42 411.334L894.42 412.91L896.12 412.91L896.12 405.747C896.12 405.03 895.964 404.413 895.652 403.895C895.341 403.377 894.889 402.979 894.296 402.7C893.703 402.422 892.984 402.283 892.139 402.283C891.379 402.283 890.707 402.403 890.123 402.643C889.539 402.884 889.067 403.215 888.708 403.639C888.35 404.062 888.13 404.551 888.048 405.106L888.038 405.176L889.723 405.176L889.735 405.133C889.863 404.712 890.128 404.383 890.531 404.144C890.934 403.906 891.453 403.787 892.089 403.787C892.859 403.787 893.44 403.959 893.832 404.304C894.224 404.649 894.42 405.143 894.42 405.786L894.42 409.001C894.42 409.499 894.293 409.946 894.037 410.341C893.781 410.737 893.432 411.049 892.988 411.279C892.544 411.509 892.038 411.623 891.469 411.623C890.857 411.623 890.353 411.476 889.958 411.182C889.563 410.889 889.366 410.48 889.366 409.957L889.366 409.937C889.366 409.427 889.55 409.029 889.92 408.743C890.289 408.456 890.859 408.291 891.631 408.247L895.27 408.017L895.27 406.669L891.428 406.899C890.218 406.969 889.282 407.268 888.62 407.795C887.958 408.323 887.627 409.047 887.627 409.967L887.627 409.987C887.627 410.619 887.779 411.168 888.082 411.635C888.385 412.103 888.799 412.463 889.324 412.717C889.85 412.971 890.445 413.098 891.111 413.098Z"/>
</g>
<path d="M755 130L785 130C787.761 130 790 132.239 790 135L790 145C790 147.761 787.761 150 785 150L755 150C752.239 150 750 147.761 750 145L750 135C750 132.239 752.239 130 755 130Z" fill="#e3f501" fill-rule="nonzero" opacity="1" stroke="#000000" stroke-linecap="butt" stroke-linejoin="round" stroke-width="3.5"/>
<path d="M115 130L145 130C147.761 130 150 132.239 150 135L150 145C150 147.761 147.761 150 145 150L115 150C112.239 150 110 147.761 110 145L110 135C110 132.239 112.239 130 115 130Z" fill="#e3f501" fill-rule="nonzero" opacity="1" stroke="#000000" stroke-linecap="butt" stroke-linejoin="round" stroke-width="3.5"/>
<path d="M545 270L575 270C577.761 270 580 273.358 580 277.5L580 292.5C580 296.642 577.761 300 575 300L545 300C542.239 300 540 296.642 540 292.5L540 277.5C540 273.358 542.239 270 545 270Z" fill="#14b218" fill-rule="nonzero" opacity="1" stroke="#000000" stroke-linecap="butt" stroke-linejoin="round" stroke-width="3.5"/>
<path d="M605 270L635 270C637.761 270 640 272.239 640 275L640 295C640 297.761 637.761 300 635 300L605 300C602.239 300 600 297.761 600 295L600 275C600 272.239 602.239 270 605 270Z" fill="#14b218" fill-rule="nonzero" opacity="1" stroke="#000000" stroke-linecap="butt" stroke-linejoin="round" stroke-width="3.5"/>
<path d="M615 270L625 270C627.761 270 630 272.239 630 275L630 285C630 287.761 627.761 290 625 290L615 290C612.239 290 610 287.761 610 285L610 275C610 272.239 612.239 270 615 270Z" fill="#e3f501" fill-rule="nonzero" opacity="1" stroke="#000000" stroke-linecap="butt" stroke-linejoin="round" stroke-width="3.5"/>
<path d="M555 270L565 270C567.761 270 570 272.239 570 275L570 285C570 287.761 567.761 290 565 290L555 290C552.239 290 550 287.761 550 285L550 275C550 272.239 552.239 270 555 270Z" fill="#e3f501" fill-rule="nonzero" opacity="1" stroke="#000000" stroke-linecap="butt" stroke-linejoin="round" stroke-width="3.5"/>
<path d="M560 60C560 43.4315 573.431 30 590 30C606.569 30 620 43.4315 620 60C620 76.5685 606.569 90 590 90C573.431 90 560 76.5685 560 60Z" fill="#8996b1" fill-opacity="0.33518" fill-rule="nonzero" opacity="1" stroke="#000000" stroke-linecap="butt" stroke-linejoin="round" stroke-width="3.5"/>
<path d="M583.015 68.6434L596.999 68.6434L596.999 66.2932L585.865 66.2932L586.644 67.0276L586.644 65.3972L585.865 67.0276L591.682 61.0639C592.984 59.7321 593.993 58.6133 594.708 57.7075C595.423 56.8017 595.925 55.9865 596.213 55.2618C596.502 54.5371 596.647 53.788 596.647 53.0144L596.647 52.985C596.647 51.8784 596.36 50.8796 595.787 49.9885C595.215 49.0973 594.429 48.3923 593.43 47.8733C592.431 47.3543 591.29 47.0948 590.007 47.0948C588.695 47.0948 587.498 47.3714 586.416 47.9247C585.334 48.478 584.475 49.2369 583.838 50.2015C583.201 51.166 582.883 52.2604 582.883 53.4844L582.883 53.5726L585.439 53.5726L585.439 53.4991C585.439 52.7353 585.64 52.0449 586.041 51.428C586.443 50.8111 586.991 50.319 587.686 49.9518C588.382 49.5845 589.17 49.4009 590.051 49.4009C590.825 49.4009 591.508 49.56 592.101 49.8783C592.693 50.1966 593.158 50.6348 593.496 51.193C593.834 51.7511 594.003 52.3926 594.003 53.1172L594.003 53.1466C594.003 53.7342 593.907 54.2874 593.716 54.8064C593.525 55.3255 593.178 55.9106 592.673 56.5618C592.169 57.213 591.437 58.038 590.477 59.0369L583.015 66.822L583.015 68.6434Z" fill="#000000" opacity="1" stroke="none"/>
<path d="M420 60.2511C420 43.8212 433.431 30.5021 450 30.5021C466.569 30.5021 480 43.8212 480 60.2511C480 76.681 466.569 90 450 90C433.431 90 420 76.681 420 60.2511Z" fill="#8996b1" fill-opacity="0.33518" fill-rule="nonzero" opacity="1" stroke="#000000" stroke-linecap="butt" stroke-linejoin="round" stroke-width="3.5"/>
<path d="M449.765 69.4144C451.185 69.4144 452.448 69.1476 453.555 68.6139C454.661 68.0802 455.533 67.3482 456.169 66.4179C456.806 65.4876 457.124 64.4349 457.124 63.2597L457.124 63.2304C457.124 61.7223 456.647 60.5105 455.692 59.5949C454.737 58.6792 453.486 58.1578 451.939 58.0305L451.939 57.9717C452.82 57.7857 453.599 57.4674 454.274 57.0169C454.95 56.5665 455.479 56.0034 455.861 55.3277C456.243 54.652 456.434 53.8784 456.434 53.0069L456.434 52.9775C456.434 51.9003 456.157 50.9529 455.604 50.1352C455.051 49.3175 454.272 48.6761 453.268 48.2109C452.265 47.7458 451.087 47.5132 449.736 47.5132C448.414 47.5132 447.246 47.7531 446.232 48.233C445.219 48.7128 444.406 49.3836 443.794 50.2453C443.182 51.1071 442.817 52.1157 442.7 53.2713L442.685 53.4182L445.226 53.4182L445.241 53.2713C445.319 52.5564 445.554 51.9395 445.946 51.4205C446.338 50.9015 446.859 50.5024 447.51 50.2233C448.161 49.9442 448.903 49.8047 449.736 49.8047C450.597 49.8047 451.329 49.9418 451.932 50.216C452.534 50.4902 452.992 50.8868 453.305 51.4058C453.618 51.9248 453.775 52.5564 453.775 53.3006L453.775 53.33C453.775 54.0351 453.594 54.6643 453.232 55.2175C452.869 55.7708 452.365 56.2066 451.719 56.5249C451.072 56.8431 450.328 57.0023 449.486 57.0023L446.945 57.0023L446.945 59.235L449.603 59.235C451.092 59.235 452.269 59.5851 453.136 60.2852C454.003 60.9854 454.436 61.9867 454.436 63.2891L454.436 63.3185C454.436 64.0627 454.24 64.7213 453.849 65.2942C453.457 65.867 452.911 66.315 452.211 66.6382C451.511 66.9613 450.695 67.1229 449.765 67.1229C448.355 67.1229 447.204 66.7949 446.313 66.1388C445.422 65.4827 444.923 64.6356 444.815 63.5976L444.8 63.4507L442.259 63.4507L442.274 63.627C442.372 64.7433 442.736 65.7373 443.368 66.6088C444 67.4804 444.859 68.1658 445.946 68.6653C447.033 69.1647 448.306 69.4144 449.765 69.4144Z" fill="#000000" opacity="1" stroke="none"/>
<path d="M280 60C280 43.4315 293.431 30 310 30C326.569 30 340 43.4315 340 60C340 76.5685 326.569 90 310 90C293.431 90 280 76.5685 280 60Z" fill="#8996b1" fill-opacity="0.33518" fill-rule="nonzero" opacity="1" stroke="#000000" stroke-linecap="butt" stroke-linejoin="round" stroke-width="3.5"/>
<path d="M312.512 68.6434L315.068 68.6434L315.068 64.2367L318.064 64.2367L318.064 61.9159L315.068 61.9159L315.068 47.4473L311.16 47.4473C310.543 48.407 309.924 49.3666 309.302 50.3263C308.68 51.286 308.061 52.2457 307.444 53.2053C306.827 54.165 306.208 55.1247 305.586 56.0844C304.964 57.0441 304.342 58.0037 303.72 58.9634C303.099 59.9231 302.479 60.8828 301.862 61.8424L301.862 64.2367L312.512 64.2367L312.512 68.6434ZM304.477 61.9159L304.477 61.8571C305.006 61.0443 305.535 60.234 306.063 59.4261C306.592 58.6182 307.123 57.8079 307.657 56.9951C308.191 56.1823 308.722 55.372 309.251 54.5641C309.78 53.7562 310.308 52.9483 310.837 52.1404C311.366 51.3325 311.895 50.5222 312.424 49.7094L312.512 49.7094L312.512 61.9159L304.477 61.9159Z" fill="#000000" opacity="1" stroke="none"/>
<path d="M100 60C100 43.4315 113.431 30 130 30C146.569 30 160 43.4315 160 60C160 76.5685 146.569 90 130 90C113.431 90 100 76.5685 100 60Z" fill="#8996b1" fill-opacity="0.33518" fill-rule="nonzero" opacity="1" stroke="#000000" stroke-linecap="butt" stroke-linejoin="round" stroke-width="3.5"/>
<path d="M130.015 68.996C131.484 68.996 132.786 68.6899 133.922 68.0779C135.058 67.4659 135.949 66.6163 136.595 65.5294C137.242 64.4424 137.565 63.1938 137.565 61.7837L137.565 61.7543C137.565 60.3931 137.264 59.1862 136.661 58.1335C136.059 57.0808 135.232 56.2509 134.179 55.6437C133.126 55.0366 131.919 54.733 130.558 54.733C129.53 54.733 128.595 54.9191 127.753 55.2912C126.91 55.6633 126.24 56.2068 125.74 56.9216L125.681 56.9216L126.401 49.7975L136.36 49.7975L136.36 47.4473L124.227 47.4473L123.14 59.5363L125.476 59.5363C125.613 59.2915 125.767 59.0662 125.939 58.8606C126.11 58.6549 126.289 58.464 126.475 58.2877C126.945 57.8568 127.486 57.5361 128.098 57.3256C128.71 57.1151 129.373 57.0098 130.088 57.0098C131.028 57.0098 131.861 57.2154 132.585 57.6267C133.31 58.038 133.88 58.6035 134.297 59.3233C134.713 60.043 134.921 60.8681 134.921 61.7984L134.921 61.8278C134.921 62.7776 134.715 63.6174 134.304 64.3469C133.893 65.0765 133.32 65.6469 132.585 66.0582C131.851 66.4695 131.004 66.6751 130.044 66.6751C129.202 66.6751 128.443 66.5135 127.767 66.1904C127.092 65.8672 126.543 65.4241 126.122 64.861C125.701 64.2979 125.446 63.6688 125.358 62.9735L125.344 62.856L122.744 62.856L122.758 63.0176C122.866 64.1633 123.238 65.1866 123.875 66.0875C124.511 66.9885 125.356 67.6984 126.409 68.2174C127.461 68.7364 128.663 68.996 130.015 68.996Z" fill="#000000" opacity="1" stroke="none"/>
</g>
</svg>
